<?xml version="1.0" encoding="UTF-8"?>
<svg version="1.1" xmlns="http://www.w3.org/2000/svg" width="267" height="263">
<path d="M0 0 C88.11 0 176.22 0 267 0 C267 86.79 267 173.58 267 263 C178.89 263 90.78 263 0 263 C0 176.21 0 89.42 0 0 Z " fill="#181A1C" transform="translate(0,0)"/>
<path d="M0 0 C1.0725 0.24363281 2.145 0.48726563 3.25 0.73828125 C17.7378842 4.55946071 31.00782738 12.99195209 42 23 C42.98355469 23.8765625 43.96710938 24.753125 44.98046875 25.65625 C48.02923959 28.39337945 51.02420284 31.18388457 54 34 C54.4954834 34.46680176 54.9909668 34.93360352 55.50146484 35.41455078 C56.92742094 36.76612555 58.33901805 38.13280028 59.75 39.5 C60.56984375 40.2940625 61.3896875 41.088125 62.234375 41.90625 C64 44 64 44 64 47 C62.35 46.67 60.7 46.34 59 46 C59 45.34 59 44.68 59 44 C58.34773437 43.95488281 57.69546875 43.90976563 57.0234375 43.86328125 C52.56204792 42.58942195 49.32386882 39.92608557 45.625 37.1875 C40.54371975 33.46631508 35.51917419 30.03916386 30 27 C27.50194483 25.49969961 25.01386348 23.98415969 22.52734375 22.46484375 C19.74116043 20.84997706 16.89223504 19.41463456 14 18 C14.47050781 18.7734375 14.94101563 19.546875 15.42578125 20.34375 C17.33419841 23.53629879 19.18342 26.75437706 21 30 C21.37382812 30.66515625 21.74765625 31.3303125 22.1328125 32.015625 C26.18522788 40.74995717 25.08546351 51.8239113 21.94506836 60.63476562 C20.17798728 65.19266694 18.25772177 69.65991349 16 74 C18.9090161 72.07565086 21.81395756 70.14553321 24.7109375 68.203125 C26.66841395 66.89194125 28.63036025 65.58733173 30.6015625 64.296875 C36.24253119 60.51172989 41.18162803 56.25519173 46.06640625 51.55541992 C49.79913058 48 49.79913058 48 52 48 C52 47.01 52 46.02 52 45 C53.32 45.33 54.64 45.66 56 46 C55.54066489 50.41175347 52.58595626 53.10047492 49.6875 56.1875 C49.14988037 56.76266357 48.61226074 57.33782715 48.05834961 57.93041992 C32.68968132 73.97537232 9.30148362 88.17910532 -13.3125 90.3125 C-16.0625 90.3125 -16.0625 90.3125 -20 90 C-20 89.01 -20 88.02 -20 87 C-19.0925 86.814375 -18.185 86.62875 -17.25 86.4375 C-12.22047961 85.04327977 -7.98640654 82.17357491 -3.57421875 79.4609375 C-1 78 -1 78 1 78 C1.27199219 77.40316406 1.54398437 76.80632812 1.82421875 76.19140625 C2.97183953 74.05248513 4.13403349 72.66911057 5.8125 70.9375 C12.46288634 63.22501265 14.77164047 55.48546494 14.3515625 45.359375 C12.90273114 31.51498645 4.95105207 21.35673196 -5 12 C-12.20299369 6.51329186 -21.41343295 7.2232827 -30 8 C-39.92835949 9.46005287 -45.77402321 15.80265201 -51.76708984 23.33691406 C-59.02346719 33.12512049 -60.30739369 44.09553394 -59 56 C-56.33783992 66.49344713 -50.07533369 74.36588732 -41.3828125 80.62109375 C-37.44040917 82.90251731 -33.23533241 84.39976336 -28.953125 85.921875 C-26.51778748 86.81096648 -24.28228158 87.78130595 -22 89 C-24 91 -24 91 -26.6953125 91.15234375 C-38.01557788 90.44321551 -49.30243533 88.15422373 -59 82 C-60.051875 81.566875 -61.10375 81.13375 -62.1875 80.6875 C-67.09162526 78.64500098 -71.50943313 75.81529347 -76 73 C-76.70898438 72.57074219 -77.41796875 72.14148438 -78.1484375 71.69921875 C-83.18441787 68.52598948 -87.72001724 64.84494372 -92.25 61 C-93.13606934 60.25242432 -93.13606934 60.25242432 -94.04003906 59.48974609 C-97.78110326 56.25998185 -100.9316898 52.87576025 -104 49 C-104.556875 49.144375 -105.11375 49.28875 -105.6875 49.4375 C-108.11384195 50.02769128 -110.54906345 50.523429 -113 51 C-113.99 49.68 -114.98 48.36 -116 47 C-115.33613281 46.40832031 -114.67226562 45.81664062 -113.98828125 45.20703125 C-108.65362419 40.44982035 -108.65362419 40.44982035 -103.5 35.5 C-96.7474864 28.7474864 -89.65632789 22.85618112 -81.9375 17.25 C-81.19411377 16.70730469 -80.45072754 16.16460937 -79.68481445 15.60546875 C-72.13012443 10.19513757 -64.50586745 5.84607026 -55.6875 2.875 C-54.94677246 2.62347168 -54.20604492 2.37194336 -53.44287109 2.11279297 C-51.29928389 1.39547459 -49.15044633 0.69642463 -47 0 C-45.97777344 -0.34546875 -44.95554687 -0.6909375 -43.90234375 -1.046875 C-29.63041533 -5.30235858 -14.23625724 -3.45349884 0 0 Z " fill="#F3F5F6" transform="translate(155,72)"/>
<path d="M0 0 C9.30075899 6.83321069 17.85147387 17.61814691 20.7109375 28.9453125 C22.7229528 42.21266093 19.72674688 51.14849766 12.46875 61.9921875 C6.75382325 69.27076249 -2.77906253 74.39515543 -11.83984375 76.1015625 C-22.81501498 77.20716943 -30.00637263 75.08362356 -38.70703125 68.296875 C-47.03507158 61.02466885 -53.21953486 53.00975641 -54.2421875 41.703125 C-54.67344618 29.74137108 -52.79174605 20.6936491 -44.89453125 11.546875 C-44.15976563 10.62261719 -43.425 9.69835937 -42.66796875 8.74609375 C-32.29428062 -3.68586583 -14.72728668 -8.7821006 0 0 Z " fill="#13181D" transform="translate(148.89453125,82.453125)"/>
<path d="M0 0 C3.1125019 1.50862941 6.17863382 3.09001077 9.24365234 4.69287109 C11.5570281 5.87724279 13.87218883 7.05813335 16.18896484 8.23583984 C16.78108261 8.53727905 17.37320038 8.83871826 17.98326111 9.14929199 C24.4546371 12.42798416 31.02486246 15.48052828 37.61865234 18.50537109 C38.69800049 19.00141846 39.77734863 19.49746582 40.8894043 20.00854492 C45.09057446 21.93007736 49.29126759 23.83711002 53.55224609 25.62255859 C56.43115234 26.88037109 56.43115234 26.88037109 58.30615234 28.38037109 C61.11118912 30.36039705 64.02538485 31.10605585 67.31005859 32.03662109 C69.66758092 32.97442003 70.66372314 34.09934628 72.43115234 35.88037109 C74.71592306 37.02634531 74.71592306 37.02634531 77.24365234 37.94287109 C78.12408203 38.27931641 79.00451172 38.61576172 79.91162109 38.96240234 C82.73465286 39.9909488 85.56591465 40.97555919 88.43115234 41.88037109 C88.43115234 42.54037109 88.43115234 43.20037109 88.43115234 43.88037109 C89.27677734 44.12787109 90.12240234 44.37537109 90.99365234 44.63037109 C94.43115234 45.88037109 94.43115234 45.88037109 101.43115234 49.88037109 C101.43115234 69.02037109 101.43115234 88.16037109 101.43115234 107.88037109 C98.13115234 107.55037109 94.83115234 107.22037109 91.43115234 106.88037109 C89.56095151 103.13996942 89.18306319 102.02495416 89.20410156 98.11181641 C89.20432816 96.70080658 89.20432816 96.70080658 89.20455933 95.2612915 C89.2148819 94.25386902 89.22520447 93.24644653 89.23583984 92.20849609 C89.23866974 91.17094177 89.24149963 90.13338745 89.24441528 89.06439209 C89.25560369 85.75293408 89.28070607 82.44174726 89.30615234 79.13037109 C89.31618386 76.88428125 89.32530941 74.63818717 89.33349609 72.39208984 C89.35553864 66.88809118 89.38900302 61.38425051 89.43115234 55.88037109 C88.33996094 55.74260254 87.24876953 55.60483398 86.12451172 55.46289062 C82.11710963 54.83084003 79.50882522 53.65088126 75.93115234 51.75537109 C74.51441995 51.02250734 73.09632275 50.29227893 71.67724609 49.56396484 C70.86368652 49.1448584 70.05012695 48.72575195 69.21191406 48.29394531 C63.50889705 45.39486994 57.75018938 42.60865709 51.99365234 39.81787109 C51.34139679 39.50101349 50.68914124 39.18415588 50.01712036 38.85769653 C37.82193659 32.94108106 25.50597798 27.30666153 13.11889648 21.80395508 C12.11229477 21.35320114 12.11229477 21.35320114 11.08535767 20.89334106 C9.27521081 20.0827642 7.46252815 19.27785683 5.6496582 18.47338867 C2.43115234 16.88037109 2.43115234 16.88037109 -0.55102539 14.62133789 C-4.46654843 12.36249194 -6.25191709 12.75507777 -10.56884766 13.88037109 C-13.65348894 15.0115763 -13.65348894 15.0115763 -16.67431641 16.50537109 C-17.81288086 17.04266846 -18.95144531 17.57996582 -20.12451172 18.13354492 C-21.33516711 18.71573004 -22.54577816 19.29800739 -23.75634766 19.88037109 C-25.64373089 20.77578725 -27.5326279 21.667955 -29.42160034 22.56001282 C-30.68263542 23.15583416 -31.94315574 23.75274619 -33.20315552 24.35075378 C-38.53943198 26.88068566 -43.91991874 29.30049921 -49.31884766 31.69287109 C-58.94795758 35.99211259 -68.33976642 40.69357853 -77.72607422 45.49560547 C-81.25350383 47.29747876 -84.7860488 49.08905191 -88.31884766 50.88037109 C-89.46305176 51.46915039 -90.60725586 52.05792969 -91.78613281 52.66455078 C-92.86427246 53.21014648 -93.94241211 53.75574219 -95.05322266 54.31787109 C-96.01969727 54.81158203 -96.98617187 55.30529297 -97.98193359 55.81396484 C-100.56884766 56.88037109 -100.56884766 56.88037109 -104.56884766 56.88037109 C-104.56361084 57.70537109 -104.55837402 58.53037109 -104.55297852 59.38037109 C-104.40040664 87.06733824 -104.40040664 87.06733824 -104.88134766 96.50537109 C-104.93935547 97.67326172 -104.99736328 98.84115234 -105.05712891 100.04443359 C-105.64548939 103.30511844 -105.98660561 104.76715904 -108.56884766 106.88037109 C-111.20884766 106.88037109 -113.84884766 106.88037109 -116.56884766 106.88037109 C-116.56884766 87.74037109 -116.56884766 68.60037109 -116.56884766 48.88037109 C-110.29884766 45.91037109 -104.02884766 42.94037109 -97.56884766 39.88037109 C-92.6769576 37.43611169 -92.6769576 37.43611169 -87.7890625 34.98388672 C-72.35978238 27.22428206 -56.71681566 19.90598302 -40.99487305 12.76196289 C-34.47435096 9.78760375 -28.02725633 6.70000586 -21.65063477 3.42822266 C-19.96384302 2.56485006 -18.26647607 1.72223594 -16.56884766 0.88037109 C-15.41513672 0.29255859 -14.26142578 -0.29525391 -13.07275391 -0.90087891 C-8.01872104 -2.65880338 -4.8877486 -2.13031887 0 0 Z " fill="#D1D3D2" transform="translate(139.56884765625,7.11962890625)"/>
<path d="M0 0 C0.99 0 1.98 0 3 0 C3 1.65 3 3.3 3 5 C2.34 5 1.68 5 1 5 C1.495 6.98 1.495 6.98 2 9 C5.96 9.33 9.92 9.66 14 10 C14 25.18 14 40.36 14 56 C16.97 56 19.94 56 23 56 C23 40.82 23 25.64 23 10 C26.3 9.67 29.6 9.34 33 9 C33.33 6.69 33.66 4.38 34 2 C34.33 2 34.66 2 35 2 C35.495 4.97 35.495 4.97 36 8 C36.33 6.35 36.66 4.7 37 3 C37.33 3 37.66 3 38 3 C38 20.82 38 38.64 38 57 C41.3 57 44.6 57 48 57 C47.67 55.68 47.34 54.36 47 53 C46.91455403 51.2285438 46.88225196 49.45417478 46.88647461 47.68066406 C46.88655014 46.61986633 46.88662567 45.5590686 46.88670349 44.46612549 C46.89186478 43.32746033 46.89702606 42.18879517 46.90234375 41.015625 C46.90446617 39.25952911 46.90446617 39.25952911 46.90663147 37.46795654 C46.9122291 33.72861171 46.9247812 29.98932674 46.9375 26.25 C46.9425153 23.71484461 46.94707816 21.17968829 46.95117188 18.64453125 C46.96219776 12.42966707 46.97893356 6.21483781 47 0 C47.33 0 47.66 0 48 0 C48.33 2.64 48.66 5.28 49 8 C49.33 6.68 49.66 5.36 50 4 C50.99 4.33 51.98 4.66 53 5 C53.16780455 12.81439856 53.32777196 20.62892879 53.48217773 28.44360352 C53.53569066 31.10444815 53.59102682 33.76525675 53.64819336 36.42602539 C53.72984579 40.24096908 53.80503326 44.0559925 53.87890625 47.87109375 C53.91945885 49.66793861 53.91945885 49.66793861 53.96083069 51.50108337 C53.98092697 52.6021492 54.00102325 53.70321503 54.02172852 54.83764648 C54.05170677 56.2999192 54.05170677 56.2999192 54.08229065 57.79173279 C54 60 54 60 53 61 C51.36776544 61.09605864 49.7313561 61.12187821 48.09629822 61.12025452 C46.50396111 61.12231651 46.50396111 61.12231651 44.87945557 61.12442017 C43.1175589 61.11902725 43.1175589 61.11902725 41.32006836 61.11352539 C40.09097244 61.11367142 38.86187653 61.11381744 37.59553528 61.1139679 C34.21551328 61.11338892 30.83555171 61.10835964 27.45554042 61.10139394 C23.92678806 61.09515988 20.39803497 61.09455656 16.86927795 61.09336853 C10.18276881 61.09025537 3.49627594 61.08204218 -3.19022602 61.07201904 C-10.80074303 61.06085744 -18.4112608 61.05534733 -26.02178395 61.05032361 C-41.68119874 61.03985956 -57.34059727 61.02226041 -73 61 C-72.68160156 60.22011719 -72.36320312 59.44023437 -72.03515625 58.63671875 C-71.16330789 56.41597293 -70.55758288 54.30998622 -70 52 C-69.67 51.34 -69.34 50.68 -69 50 C-68.79606804 47.21195878 -68.67629453 44.47838867 -68.625 41.6875 C-68.58761719 40.92759766 -68.55023438 40.16769531 -68.51171875 39.38476562 C-68.44874472 35.35792601 -68.59768708 33.5399663 -71.06640625 30.2265625 C-74.35617618 27.72966655 -77.68834577 25.65447145 -81.3125 23.6875 C-81.95767578 23.32849609 -82.60285156 22.96949219 -83.26757812 22.59960938 C-84.84089355 21.72554525 -86.41987465 20.86169217 -88 20 C-88.02689216 18.52093108 -88.04634621 17.04172517 -88.0625 15.5625 C-88.07410156 14.73878906 -88.08570312 13.91507813 -88.09765625 13.06640625 C-88 11 -88 11 -87 10 C-85.31391034 9.92794489 -83.62499341 9.91613932 -81.9375 9.9375 C-81.01839844 9.94652344 -80.09929687 9.95554688 -79.15234375 9.96484375 C-78.44207031 9.97644531 -77.73179688 9.98804688 -77 10 C-77.33 11.98 -77.66 13.96 -78 16 C-74.37 16 -70.74 16 -67 16 C-66.67 15.34 -66.34 14.68 -66 14 C-66 14.66 -66 15.32 -66 16 C-65.34 16 -64.68 16 -64 16 C-63.67 15.01 -63.34 14.02 -63 13 C-62.67 27.19 -62.34 41.38 -62 56 C-49.13 56.495 -49.13 56.495 -36 57 C-36 54.03 -36 51.06 -36 48 C-41.94 47.67 -47.88 47.34 -54 47 C-54 42.05 -54 37.1 -54 32 C-49.38 32 -44.76 32 -40 32 C-40 29.36 -40 26.72 -40 24 C-44.62 24 -49.24 24 -54 24 C-54 19.05 -54 14.1 -54 9 C-48.39 9 -42.78 9 -37 9 C-37 7.35 -37 5.7 -37 4 C-36.67 4 -36.34 4 -36 4 C-35.505 6.475 -35.505 6.475 -35 9 C-34.01 8.67 -33.02 8.34 -32 8 C-31.13124421 13.96405357 -30.8660147 19.72809598 -30.90234375 25.75 C-30.9037587 26.64871826 -30.90517365 27.54743652 -30.90663147 28.47338867 C-30.91218417 31.31562775 -30.92472763 34.15778513 -30.9375 37 C-30.94252112 38.93880094 -30.94708295 40.87760312 -30.95117188 42.81640625 C-30.96213806 47.54430183 -30.97936956 52.27213711 -31 57 C-28.36 57 -25.72 57 -23 57 C-23 45.78 -23 34.56 -23 23 C-21 24 -21 24 -19.703125 27.578125 C-19.21367831 29.13383012 -18.72964145 30.69124391 -18.25 32.25 C-15.99841091 39.32763132 -13.38598382 45.92384824 -10.1015625 52.59375 C-9 55 -9 55 -9 57 C-6.03 57 -3.06 57 0 57 C-0.03029297 56.29206299 -0.06058594 55.58412598 -0.09179688 54.85473633 C-0.60237722 42.69801465 -1.09814436 30.54396172 -1.125 18.375 C-1.12951172 17.55491455 -1.13402344 16.7348291 -1.13867188 15.88989258 C-1.12538825 10.52496868 -0.66942249 5.32350268 0 0 Z " fill="#141617" transform="translate(110,202)"/>
<path d="M0 0 C11.12534172 3.3623255 20.84793735 10.65574182 30.26953125 17.3046875 C30.84453369 17.7083252 31.41953613 18.11196289 32.01196289 18.52783203 C33.67296999 19.69583337 35.32880463 20.8711801 36.984375 22.046875 C39.63327639 23.76248471 42.03221615 24.96677155 45 26 C45 26.66 45 27.32 45 28 C46.65 28.33 48.3 28.66 50 29 C50.33 28.34 50.66 27.68 51 27 C51.99 28.485 51.99 28.485 53 30 C35.09537847 49.37609713 17.57483184 64.6973578 -7 75 C-7.78761719 75.33515625 -8.57523437 75.6703125 -9.38671875 76.015625 C-28.83103416 83.80863157 -51.09297047 81.23037785 -70.125 73.6875 C-72.09234909 72.81164364 -74.05048707 71.91486947 -76 71 C-77.12019531 70.48566406 -78.24039063 69.97132813 -79.39453125 69.44140625 C-97.37285876 60.85858838 -112.27981171 48.27766773 -126 34 C-121.62629758 29.99077278 -121.62629758 29.99077278 -118.87890625 30.03125 C-116.59164944 31.21054249 -115.51434369 32.46744445 -113.9375 34.5 C-109.56346455 39.7526214 -104.35783456 43.79591743 -99 48 C-97.69482422 49.06347656 -97.69482422 49.06347656 -96.36328125 50.1484375 C-94.02733133 51.97858669 -91.6155298 53.43237137 -89.01953125 54.86328125 C-86.64054699 56.20232268 -84.32577265 57.63315566 -82 59.0625 C-78.09836788 61.40700484 -74.24595031 63.33194809 -70 65 C-69.21753906 65.32871094 -68.43507812 65.65742188 -67.62890625 65.99609375 C-57.78564581 70.08621567 -48.69586812 71.81133475 -38 72 C-37.67 71.67 -37.34 71.34 -37 71 C-38.485 70.01 -38.485 70.01 -40 69 C-39.25234375 68.86722656 -38.5046875 68.73445313 -37.734375 68.59765625 C-36.25710937 68.33275391 -36.25710937 68.33275391 -34.75 68.0625 C-33.28820312 67.80146484 -33.28820312 67.80146484 -31.796875 67.53515625 C-29.50278205 67.09620271 -27.25708029 66.59651408 -25 66 C-26.97420135 68.52259061 -27.96745642 68.9929808 -31.1875 69.6875 C-32.115625 69.790625 -33.04375 69.89375 -34 70 C-34 70.33 -34 70.66 -34 71 C-26.9732712 71.33438498 -21.01354752 70.60995858 -14.3125 68.5 C-13.4467334 68.23155273 -12.5809668 67.96310547 -11.68896484 67.68652344 C7.63673209 61.41699489 29.34315286 47.90430244 41 31 C41 30.01 41 29.02 41 28 C40.01 27.67 39.02 27.34 38 27 C38 27.99 38 28.98 38 30 C36.63671875 31.5078125 36.63671875 31.5078125 34.6875 33.125 C33.9553125 33.73601562 33.223125 34.34703125 32.46875 34.9765625 C31.6540625 35.64429688 30.839375 36.31203125 30 37 C29.1440625 37.72960937 28.288125 38.45921875 27.40625 39.2109375 C21.24545385 44.3980446 14.85950305 48.79719337 8 53 C5.9860745 54.31410583 3.99257206 55.65366753 2 57 C1.34 56.67 0.68 56.34 0 56 C0.60328125 55.14148438 1.2065625 54.28296875 1.828125 53.3984375 C8.35375053 43.56396305 11.0552749 31.63513957 9 20 C7.37525298 14.20619726 4.91801335 8.55735113 1.30078125 3.734375 C0 2 0 2 0 0 Z " fill="#A2A3A2" transform="translate(169,90)"/>
<path d="M0 0 C2.97 0 5.94 0 9 0 C12.92929429 7.35697653 16.17073297 14.72986356 18.99462891 22.56640625 C20.17623961 25.84331974 21.43690985 28.8738197 23 32 C23 21.77 23 11.54 23 1 C25.64 0.67 28.28 0.34 31 0 C31.75051856 19.01247153 32.1508147 37.96950514 32 57 C29.03 57 26.06 57 23 57 C17.63564442 46.2395471 13.64433531 35.46632329 10 24 C9.67 34.89 9.34 45.78 9 57 C6.36 57 3.72 57 1 57 C0.85494612 51.45400364 0.71266825 45.90794481 0.57275391 40.36181641 C0.52497907 38.48256599 0.47649897 36.60333335 0.42724609 34.72412109 C0.1243486 23.14601878 -0.07419344 11.58242001 0 0 Z " fill="#F5F7F7" transform="translate(78,202)"/>
<path d="M0 0 C4.66624479 9.37378379 7.78478151 19.05525443 11 29 C11.33 19.43 11.66 9.86 12 0 C14.64 0 17.28 0 20 0 C21.31219886 18.65196953 21.09926157 37.31439189 21 56 C18.03 56 15.06 56 12 56 C10.739127 53.12937166 9.49141971 50.2540372 8.25 47.375 C7.90195313 46.58609375 7.55390625 45.7971875 7.1953125 44.984375 C4.06493168 37.68015308 2.2372598 30.83040929 0 23 C0 34.22 0 45.44 0 57 C-2.97 57 -5.94 57 -9 57 C-9 38.52 -9 20.04 -9 1 C-4 0 -4 0 0 0 Z " fill="#F6F8F9" transform="translate(173,202)"/>
<path d="M0 0 C0.09269952 8.40580767 0.16376414 16.81140161 0.20724869 25.21759415 C0.22811969 29.12099518 0.25642757 33.0240464 0.30175781 36.92724609 C0.34523427 40.6944192 0.36914077 44.46125595 0.37950897 48.22866058 C0.38689723 49.66560919 0.40132506 51.10253947 0.42292023 52.53934479 C0.45197203 54.55241425 0.45363405 56.56582253 0.45410156 58.57910156 C0.46298401 59.72493713 0.47186646 60.87077271 0.48101807 62.05133057 C-0.10875436 65.66667069 -1.0850255 66.83930068 -4 69 C-6.75086191 69.34939929 -9.0883556 69.46885179 -11.828125 69.390625 C-12.95163361 69.38213531 -12.95163361 69.38213531 -14.09783936 69.37347412 C-16.482552 69.35114057 -18.86574408 69.30095386 -21.25 69.25 C-22.86976991 69.22993091 -24.48956346 69.21168085 -26.109375 69.1953125 C-30.07349966 69.15128624 -34.03649232 69.08228298 -38 69 C-35.38264889 66.33139528 -32.90542528 64.13402976 -29.75 62.125 C-25.93605809 59.66601114 -22.40696666 57.00580555 -18.921875 54.1015625 C-17 53 -17 53 -12 53 C-12 36.5 -12 20 -12 3 C-7.92834397 0.96417198 -4.54795711 0 0 0 Z " fill="#747475" transform="translate(241,125)"/>
<path d="M0 0 C1.31613281 -0.03996094 2.63226562 -0.07992187 3.98828125 -0.12109375 C8.52271172 0.56361962 9.88552123 1.89075736 12.6875 5.4375 C14.4753605 9.52403828 14.6875 11.86237781 14.6875 16.4375 C11.3875 16.4375 8.0875 16.4375 4.6875 16.4375 C5.0175 14.4575 5.3475 12.4775 5.6875 10.4375 C2.3875 10.7675 -0.9125 11.0975 -4.3125 11.4375 C-4.6425 14.4075 -4.9725 17.3775 -5.3125 20.4375 C-4.24708984 20.84548828 -4.24708984 20.84548828 -3.16015625 21.26171875 C-0.26478224 22.45720239 2.47918964 23.78944767 5.25 25.25 C6.17941406 25.73082031 7.10882813 26.21164063 8.06640625 26.70703125 C11.5203378 28.98734672 14.18412232 31.10244581 15.09301758 35.31860352 C15.68167751 41.56367689 16.17333053 49.54636191 12.6875 55 C8.42369586 58.82307439 1.99834065 58.34434839 -3.4375 58.171875 C-8.3062985 57.24915916 -9.88212951 55.93005243 -13.3125 52.4375 C-15.40394625 48.06447602 -15.50465422 44.2413555 -15.3125 39.4375 C-12.0125 39.4375 -8.7125 39.4375 -5.3125 39.4375 C-5.3125 42.0775 -5.3125 44.7175 -5.3125 47.4375 C-1.6825 47.4375 1.9475 47.4375 5.6875 47.4375 C5.55295556 43.62540749 5.42324317 40.15493919 4.6875 36.4375 C2.70731101 34.42945973 2.70731101 34.42945973 -0.3125 33.4375 C-12.37363952 26.27073594 -12.37363952 26.27073594 -14.3125 21.4375 C-15.05355194 16.23788764 -15.84940987 10.25705156 -13.25 5.48828125 C-11.9375 4.1875 -11.9375 4.1875 -9.3125 2.4375 C-6.49430779 -0.38069221 -3.77144634 0.0323575 0 0 Z " fill="#F3F5F5" transform="translate(27.3125,201.5625)"/>
<path d="M0 0 C-1.03847083 3.20981893 -2.11623115 5.13152472 -4.375 7.6875 C-10.52206935 14.9107625 -11.72082668 22.89663553 -11.44921875 32.1875 C-10.36982492 41.34826852 -6.2433309 49.19447171 -1.33203125 56.87890625 C-0.08100065 58.87101656 0.98545375 60.87955025 2 63 C-14.91265492 56.60061706 -29.82186998 44.10697044 -42 31 C-39.31048254 27.43468125 -36.5613038 24.64247488 -33.0625 21.875 C-29.89603996 19.34690507 -26.75925866 16.8134085 -23.70703125 14.1484375 C-7.47864032 0 -7.47864032 0 0 0 Z " fill="#101113" transform="translate(98,88)"/>
<path d="M0 0 C8.25 0 16.5 0 25 0 C25 2.64 25 5.28 25 8 C19.72 8 14.44 8 9 8 C9 12.95 9 17.9 9 23 C13.62 23 18.24 23 23 23 C23 25.64 23 28.28 23 31 C18.38 31 13.76 31 9 31 C9 35.95 9 40.9 9 46 C10.69769531 45.98259766 10.69769531 45.98259766 12.4296875 45.96484375 C13.91145669 45.95546546 15.39322765 45.9463653 16.875 45.9375 C17.62136719 45.92912109 18.36773437 45.92074219 19.13671875 45.91210938 C24.7734375 45.88671875 24.7734375 45.88671875 27 47 C27 49.97 27 52.94 27 56 C22.68751391 56.02886537 18.37505238 56.04675255 14.0625 56.0625 C12.83080078 56.07087891 11.59910156 56.07925781 10.33007812 56.08789062 C9.16025391 56.09111328 7.99042969 56.09433594 6.78515625 56.09765625 C5.15912476 56.10551147 5.15912476 56.10551147 3.50024414 56.11352539 C1 56 1 56 0 55 C-0.0935919 53.28134591 -0.11744611 51.55884256 -0.11352539 49.83764648 C-0.11344986 48.73658066 -0.11337433 47.63551483 -0.11329651 46.50108337 C-0.10813522 45.3031868 -0.10297394 44.10529022 -0.09765625 42.87109375 C-0.0962413 41.65172623 -0.09482635 40.4323587 -0.09336853 39.17604065 C-0.08774967 35.2631693 -0.07519396 31.35035419 -0.0625 27.4375 C-0.05748743 24.79231853 -0.0529241 22.14713617 -0.04882812 19.50195312 C-0.03862296 13.00126274 -0.01905121 6.50069467 0 0 Z " fill="#EDEFEF" transform="translate(47,203)"/>
<path d="M0 0 C7.02505684 -0.35125284 7.02505684 -0.35125284 10.47338867 0.89111328 C13.07287148 4.48208281 12.50676017 8.4348167 12.42578125 12.7421875 C12.42249313 13.70271027 12.41920502 14.66323303 12.41581726 15.65286255 C12.40004588 18.72736198 12.35597817 21.80078088 12.3125 24.875 C12.30101111 26.93879321 12.29122523 29.00259665 12.28320312 31.06640625 C12.2697721 33.04167776 12.25484723 35.01693979 12.23828125 36.9921875 C12.23089432 37.9194162 12.22350739 38.8466449 12.21589661 39.80197144 C12.15425605 43.98419465 12.0549442 47.92357243 11 52 C12.31484375 52.14695312 12.31484375 52.14695312 13.65625 52.296875 C21.25338118 53.89440259 28.41093849 59.71304992 34 65 C34 65.66 34 66.32 34 67 C31.64575325 67.02726927 29.29183038 67.04696719 26.9375 67.0625 C24.97103516 67.07990234 24.97103516 67.07990234 22.96484375 67.09765625 C19.1836481 67.00452335 15.72079293 66.61448726 12 66 C11.67 65.01 11.34 64.02 11 63 C10.2575 63.2475 9.515 63.495 8.75 63.75 C6 64 6 64 3.75 62.3125 C0.5428575 58.07449027 0.9123457 54.14745219 1 48.9375 C1.11547631 43.87598752 1.11547631 43.87598752 0 39 C-0.085409 36.05035887 -0.11582927 33.12496981 -0.09765625 30.17578125 C-0.09553383 28.88367989 -0.09553383 28.88367989 -0.09336853 27.56547546 C-0.0877714 24.81444831 -0.07521946 22.06350256 -0.0625 19.3125 C-0.05748463 17.4472668 -0.05292179 15.58203233 -0.04882812 13.71679688 C-0.03780292 9.14449989 -0.02054027 4.57226375 0 0 Z " fill="#7A7B7A" transform="translate(23,127)"/>
<path d="M0 0 C8.25 0 16.5 0 25 0 C25 2.64 25 5.28 25 8 C19.72 8 14.44 8 9 8 C9 12.95 9 17.9 9 23 C13.29 23 17.58 23 22 23 C22 25.64 22 28.28 22 31 C17.71 31 13.42 31 9 31 C9 35.95 9 40.9 9 46 C14.28 46 19.56 46 25 46 C25 48.97 25 51.94 25 55 C16.75 55 8.5 55 0 55 C0 36.85 0 18.7 0 0 Z " fill="#F9FAFB" transform="translate(200,203)"/>
<path d="M0 0 C10.41784672 3.23153296 18.06412481 8.47724499 25.11132812 16.63916016 C28.68134309 20.7635497 32.44350041 24.02326102 37 27 C33.23980147 40.78739462 13.18245961 49.63557316 2 57 C1.34 56.67 0.68 56.34 0 56 C0.60328125 55.14148438 1.2065625 54.28296875 1.828125 53.3984375 C8.35375053 43.56396305 11.0552749 31.63513957 9 20 C7.37525298 14.20619726 4.91801335 8.55735113 1.30078125 3.734375 C0 2 0 2 0 0 Z " fill="#1A191B" transform="translate(169,90)"/>
<path d="M0 0 C0.33 0 0.66 0 1 0 C1.97402085 13.56414221 -0.71745904 23.92288242 -7 36 C-4.0909839 34.07565086 -1.18604244 32.14553321 1.7109375 30.203125 C3.66841395 28.89194125 5.63036025 27.58733173 7.6015625 26.296875 C13.24253119 22.51172989 18.18162803 18.25519173 23.06640625 13.55541992 C26.79913058 10 26.79913058 10 29 10 C29 9.01 29 8.02 29 7 C30.32 7.33 31.64 7.66 33 8 C32.54066489 12.41175347 29.58595626 15.10047492 26.6875 18.1875 C26.14988037 18.76266357 25.61226074 19.33782715 25.05834961 19.93041992 C9.68968132 35.97537232 -13.69851638 50.17910532 -36.3125 52.3125 C-39.0625 52.3125 -39.0625 52.3125 -43 52 C-43 51.01 -43 50.02 -43 49 C-42.0925 48.814375 -41.185 48.62875 -40.25 48.4375 C-35.22047961 47.04327977 -30.98640654 44.17357491 -26.57421875 41.4609375 C-24 40 -24 40 -22 40 C-21.72800781 39.40316406 -21.45601562 38.80632812 -21.17578125 38.19140625 C-20.02816047 36.05248513 -18.86596651 34.66911057 -17.1875 32.9375 C-10.89508076 25.71972499 -8.22597607 17.47045172 -8 8 C-7.67 8 -7.34 8 -7 8 C-7 9.98 -7 11.96 -7 14 C-4.53199953 12.84826645 -2.95216435 11.95216435 -1 10 C-0.53837573 7.56747339 -0.53837573 7.56747339 -0.375 4.875 C-0.30023438 3.96492188 -0.22546875 3.05484375 -0.1484375 2.1171875 C-0.09945312 1.41851562 -0.05046875 0.71984375 0 0 Z " fill="#F3F4F4" transform="translate(178,110)"/>
<path d="M0 0 C9.57 0 19.14 0 29 0 C29 3.3 29 6.6 29 10 C25.7 10 22.4 10 19 10 C19 25.18 19 40.36 19 56 C16.03 56 13.06 56 10 56 C10 40.82 10 25.64 10 10 C6.7 10 3.4 10 0 10 C0 6.7 0 3.4 0 0 Z " fill="#F1F3F3" transform="translate(114,202)"/>
<path d="M0 0 C0.66 0 1.32 0 2 0 C2.33 1.98 2.66 3.96 3 6 C3.33 6 3.66 6 4 6 C4 19.86 4 33.72 4 48 C3.34 48 2.68 48 2 48 C2.020625 49.2375 2.04125 50.475 2.0625 51.75 C2.06766681 54.6640825 1.93015558 57.20953327 1 60 C0.01 60 -0.98 60 -2 60 C-1.34 55.71 -0.68 51.42 0 47 C-5.61 47 -11.22 47 -17 47 C-17 42.05 -17 37.1 -17 32 C-12.71 32 -8.42 32 -4 32 C-4.33 29.36 -4.66 26.72 -5 24 C-8.63 23.67 -12.26 23.34 -16 23 C-16 18.71 -16 14.42 -16 10 C-10.72 10 -5.44 10 0 10 C0 6.7 0 3.4 0 0 Z " fill="#121314" transform="translate(226,202)"/>
<path d="M0 0 C2.97 0 5.94 0 9 0 C9 15.51 9 31.02 9 47 C14.28 47 19.56 47 25 47 C25 50.3 25 53.6 25 57 C16.75 57 8.5 57 0 57 C0 38.19 0 19.38 0 0 Z " fill="#F2F4F4" transform="translate(231,202)"/>
<path d="M0 0 C2.28725681 1.17929249 3.36456256 2.43619445 4.94140625 4.46875 C9.3154417 9.7213714 14.52107169 13.76466743 19.87890625 17.96875 C21.18408203 19.03222656 21.18408203 19.03222656 22.515625 20.1171875 C24.85157492 21.94733669 27.26337645 23.40112137 29.859375 24.83203125 C32.23835926 26.17107268 34.5531336 27.60190566 36.87890625 29.03125 C40.78053837 31.37575484 44.63295594 33.30069809 48.87890625 34.96875 C49.63816406 35.28585938 50.39742187 35.60296875 51.1796875 35.9296875 C56.30050594 38.04809762 61.38289167 39.77315073 66.75 41.16015625 C69.09232149 42.04980863 70.2579078 43.08714087 71.87890625 44.96875 C71.38390625 45.95875 71.38390625 45.95875 70.87890625 46.96875 C68.94140625 47.53125 68.94140625 47.53125 66.87890625 47.96875 C65.88890625 48.46375 65.88890625 48.46375 64.87890625 48.96875 C62.50991375 48.33981394 60.25191285 47.64542965 57.94140625 46.84375 C57.26698486 46.61365234 56.59256348 46.38355469 55.89770508 46.14648438 C50.04732866 44.10867382 44.44874817 41.68072234 38.87890625 38.96875 C38.07324219 38.60265625 37.26757812 38.2365625 36.4375 37.859375 C19.70849307 30.01849214 5.56867201 17.17412701 -7.12109375 3.96875 C-2.74739133 -0.04047722 -2.74739133 -0.04047722 0 0 Z " fill="#959798" transform="translate(50.12109375,120.03125)"/>
<path d="M0 0 C1.37478516 0.01740234 1.37478516 0.01740234 2.77734375 0.03515625 C3.69644531 0.04417969 4.61554687 0.05320313 5.5625 0.0625 C6.27277344 0.07410156 6.98304687 0.08570313 7.71484375 0.09765625 C7.38484375 2.07765625 7.05484375 4.05765625 6.71484375 6.09765625 C10.34484375 6.09765625 13.97484375 6.09765625 17.71484375 6.09765625 C18.04484375 5.43765625 18.37484375 4.77765625 18.71484375 4.09765625 C18.71484375 4.75765625 18.71484375 5.41765625 18.71484375 6.09765625 C19.37484375 6.09765625 20.03484375 6.09765625 20.71484375 6.09765625 C21.04484375 5.10765625 21.37484375 4.11765625 21.71484375 3.09765625 C22.04484375 17.28765625 22.37484375 31.47765625 22.71484375 46.09765625 C30.63484375 46.42765625 38.55484375 46.75765625 46.71484375 47.09765625 C46.71484375 47.42765625 46.71484375 47.75765625 46.71484375 48.09765625 C45.73088623 48.12738525 45.73088623 48.12738525 44.72705078 48.15771484 C41.76423306 48.25278132 38.80213843 48.36253377 35.83984375 48.47265625 C34.29103516 48.5190625 34.29103516 48.5190625 32.7109375 48.56640625 C31.72480469 48.60507812 30.73867188 48.64375 29.72265625 48.68359375 C28.8114502 48.71501465 27.90024414 48.74643555 26.96142578 48.77880859 C24.51553189 48.89648136 24.51553189 48.89648136 22.71484375 51.09765625 C20.11328125 51.29296875 20.11328125 51.29296875 17.08984375 51.22265625 C16.08695313 51.20460938 15.0840625 51.1865625 14.05078125 51.16796875 C12.89449219 51.13316406 12.89449219 51.13316406 11.71484375 51.09765625 C12.03324219 50.31777344 12.35164063 49.53789062 12.6796875 48.734375 C13.55153586 46.51362918 14.15726087 44.40764247 14.71484375 42.09765625 C15.04484375 41.43765625 15.37484375 40.77765625 15.71484375 40.09765625 C15.91877571 37.30961503 16.03854922 34.57604492 16.08984375 31.78515625 C16.12722656 31.02525391 16.16460937 30.26535156 16.203125 29.48242188 C16.26609903 25.45558226 16.11715667 23.63762255 13.6484375 20.32421875 C10.35866757 17.8273228 7.02649798 15.7521277 3.40234375 13.78515625 C2.75716797 13.42615234 2.11199219 13.06714844 1.44726562 12.69726562 C-0.1260498 11.8232015 -1.7050309 10.95934842 -3.28515625 10.09765625 C-3.31204841 8.61858733 -3.33150246 7.13938142 -3.34765625 5.66015625 C-3.35925781 4.83644531 -3.37085937 4.01273438 -3.3828125 3.1640625 C-3.24381204 0.22281267 -2.9444484 0.12583113 0 0 Z " fill="#121415" transform="translate(25.28515625,211.90234375)"/>
<path d="M0 0 C2.97 0 5.94 0 9 0 C9.33 18.81 9.66 37.62 10 57 C6.7 57 3.4 57 0 57 C0 38.19 0 19.38 0 0 Z " fill="#EDEFF0" transform="translate(148,202)"/>
<path d="M0 0 C3.68617067 2.29346333 6.93330988 4.93330988 10 8 C10.56379514 11.52371963 10.57700104 13.97713452 8.796875 17.1328125 C6.22831934 20.6483609 3.72010663 23.66226762 0 26 C-5.43551444 25.89934233 -8.75765937 24.33326764 -13 21 C-15.14712408 16.70575183 -14.81928365 11.62688968 -14 7 C-10.72790531 2.12027566 -6.01051715 -1.62784839 0 0 Z " fill="#F5F9FA" transform="translate(123,95)"/>
<path d="M0 0 C1.98 0 3.96 0 6 0 C6 0.33 6 0.66 6 1 C4.35 1 2.7 1 1 1 C1 19.48 1 37.96 1 57 C3.97 57 6.94 57 10 57 C9.67 55.68 9.34 54.36 9 53 C8.91757806 50.53762233 8.89256701 48.07311232 8.90234375 45.609375 C8.9037587 44.90476135 8.90517365 44.20014771 8.90663147 43.47418213 C8.91221067 41.23274416 8.92475927 38.99140757 8.9375 36.75 C8.94251769 35.22656395 8.94708013 33.70312632 8.95117188 32.1796875 C8.96217326 28.45309228 8.97942354 24.72655604 9 21 C11.13714281 23.13714281 11.50575295 24.13702966 12.33203125 26.96484375 C12.57099121 27.76011475 12.80995117 28.55538574 13.05615234 29.37475586 C13.43054443 30.64331421 13.43054443 30.64331421 13.8125 31.9375 C15.80488233 38.514338 17.98330419 44.73144186 21.1171875 50.87109375 C22 53 22 53 22 57 C23.98 57 25.96 57 28 57 C23 61 23 61 0 61 C0 40.87 0 20.74 0 0 Z " fill="#2F3232" transform="translate(163,202)"/>
<path d="M0 0 C4.58879772 0.49110879 4.58879772 0.49110879 6.4140625 2.75 C6.81367187 3.4925 7.21328125 4.235 7.625 5 C13.50331491 14.39333782 21.82063287 19.5248561 32.15234375 23.02734375 C34.57753334 23.85570069 36.74795994 24.78986763 39 26 C37 28 37 28 34.3046875 28.15234375 C22.98017976 27.44294976 11.70337942 25.15050129 2 19 C-0.33124929 17.99515117 -2.66443537 16.99477753 -5 16 C-5.99 15.34 -6.98 14.68 -8 14 C-7.67 12.68 -7.34 11.36 -7 10 C-2.76570244 11.31061591 1.07407404 12.94356259 5 15 C4.47148438 14.25234375 3.94296875 13.5046875 3.3984375 12.734375 C2.73070313 11.74953125 2.06296875 10.7646875 1.375 9.75 C0.70210937 8.77546875 0.02921875 7.8009375 -0.6640625 6.796875 C-2 4 -2 4 -1.2109375 1.640625 C-0.81132813 1.09921875 -0.41171875 0.5578125 0 0 Z " fill="#EFF0F2" transform="translate(94,135)"/>
<path d="M0 0 C8.73553719 4.99173554 8.73553719 4.99173554 10 7 C11.06045763 13.96872157 8.2016567 20.46383166 6 27 C11.46279625 23.95099744 14.01228098 20.44663822 17 15 C18.32 15.33 19.64 15.66 21 16 C20.47289246 20.38207315 18.95723739 22.79084617 16.1875 26.1875 C15.50042969 27.04730469 14.81335937 27.90710938 14.10546875 28.79296875 C12.0944927 30.90094921 10.75082405 32.09049834 8 33 C4.95139986 31.98379995 4.13333078 31.22608429 2 29 C1.34 28.67 0.68 28.34 0 28 C0 18.76 0 9.52 0 0 Z " fill="#676D73" transform="translate(44,142)"/>
<path d="M0 0 C1.32 0 2.64 0 4 0 C6.140625 2.30078125 6.140625 2.30078125 8.25 5.3125 C8.95640625 6.29863281 9.6628125 7.28476563 10.390625 8.30078125 C12 11 12 11 12 14 C9.69 13.67 7.38 13.34 5 13 C5 13.66 5 14.32 5 15 C4.01 15.495 4.01 15.495 3 16 C3.33 16.99 3.66 17.98 4 19 C-0.75 19.125 -0.75 19.125 -3 18 C-3.33 20.64 -3.66 23.28 -4 26 C-4.99 26 -5.98 26 -7 26 C-8.33819498 23.3773768 -9.6707151 20.75213401 -11 18.125 C-11.3815625 17.37863281 -11.763125 16.63226563 -12.15625 15.86328125 C-12.5171875 15.14785156 -12.878125 14.43242188 -13.25 13.6953125 C-13.58515625 13.03547363 -13.9203125 12.37563477 -14.265625 11.69580078 C-15 10 -15 10 -15 8 C-14.01 8 -13.02 8 -12 8 C-11.01 9.485 -11.01 9.485 -10 11 C-9.9175 10.21625 -9.835 9.4325 -9.75 8.625 C-9 6 -9 6 -6.9375 4.6875 C-6.298125 4.460625 -5.65875 4.23375 -5 4 C-2 7.75 -2 7.75 -2 10 C-1.01 9.67 -0.02 9.34 1 9 C0.649375 8.2575 0.29875 7.515 -0.0625 6.75 C-1.04509293 3.8677274 -1.0326802 2.78823655 0 0 Z " fill="#171A21" transform="translate(68,59)"/>
<path d="M0 0 C0.33 0 0.66 0 1 0 C2.02441386 14.26591158 -0.50880672 27.22887833 -9.4375 38.875 C-11 40 -11 40 -13.1875 39.6875 C-13.785625 39.460625 -14.38375 39.23375 -15 39 C-15.33 39.99 -15.66 40.98 -16 42 C-18.91482778 42.80967438 -20.46113217 43.21845993 -23.3125 42.0625 C-24.1478125 41.5365625 -24.1478125 41.5365625 -25 41 C-23.515 40.505 -23.515 40.505 -22 40 C-21.29096929 38.68870382 -20.62768278 37.35212298 -20 36 C-19.09165537 34.95313947 -18.1521621 33.93270549 -17.1875 32.9375 C-10.89508076 25.71972499 -8.22597607 17.47045172 -8 8 C-7.67 8 -7.34 8 -7 8 C-7 9.98 -7 11.96 -7 14 C-4.53199953 12.84826645 -2.95216435 11.95216435 -1 10 C-0.53837573 7.56747339 -0.53837573 7.56747339 -0.375 4.875 C-0.30023438 3.96492188 -0.22546875 3.05484375 -0.1484375 2.1171875 C-0.09945312 1.41851562 -0.05046875 0.71984375 0 0 Z " fill="#C1C4C4" transform="translate(178,110)"/>
<path d="M0 0 C2.28725681 1.17929249 3.36456256 2.43619445 4.94140625 4.46875 C10.03836188 10.58950018 16.34051611 15.32720944 22.69921875 20.07421875 C24.87890625 21.96875 24.87890625 21.96875 25.12890625 24.53125 C25.04640625 25.335625 24.96390625 26.14 24.87890625 26.96875 C25.37390625 28.45375 25.37390625 28.45375 25.87890625 29.96875 C22.15508436 29.43080207 19.94902096 28.59429904 17.05859375 26.1953125 C16.01529907 25.33607178 16.01529907 25.33607178 14.95092773 24.45947266 C14.22591064 23.84378418 13.50089355 23.2280957 12.75390625 22.59375 C12.00633057 21.96903809 11.25875488 21.34432617 10.48852539 20.70068359 C4.27250057 15.44410759 -1.53097116 9.88486246 -7.12109375 3.96875 C-2.74739133 -0.04047722 -2.74739133 -0.04047722 0 0 Z " fill="#9FA0A1" transform="translate(50.12109375,120.03125)"/>
<path d="M0 0 C0 9.9 0 19.8 0 30 C-5 29 -5 29 -6.2578125 27.328125 C-6.54398438 26.64234375 -6.83015625 25.9565625 -7.125 25.25 C-8.23722063 22.72715809 -9.30801933 20.49396824 -10.75 18.125 C-12 16 -12 16 -12 14 C-12.66 14 -13.32 14 -14 14 C-13.51077907 9.75765137 -12.46375972 8.01738975 -9.1875 5.3125 C-8.15689453 4.44044922 -8.15689453 4.44044922 -7.10546875 3.55078125 C-2.28463476 0 -2.28463476 0 0 0 Z " fill="#595E61" transform="translate(219,142)"/>
<path d="M0 0 C0.99 0 1.98 0 3 0 C3.38671875 1.134375 3.7734375 2.26875 4.171875 3.4375 C4.69762949 4.95843263 5.22368746 6.47926039 5.75 8 C6.00265625 8.74378906 6.2553125 9.48757812 6.515625 10.25390625 C8.0984294 14.80446889 9.92221949 19.00999508 12.26367188 23.22460938 C13.41254198 25.99469671 12.83790015 28.20699952 12 31 C8.7 31 5.4 31 2 31 C1.67 29.68 1.34 28.36 1 27 C0.67 26.67 0.34 26.34 0 26 C-0.08748207 24.07332493 -0.10697334 22.14348139 -0.09765625 20.21484375 C-0.09443359 19.04501953 -0.09121094 17.87519531 -0.08789062 16.66992188 C-0.07951172 15.43822266 -0.07113281 14.20652344 -0.0625 12.9375 C-0.05798828 11.70193359 -0.05347656 10.46636719 -0.04882812 9.19335938 C-0.03699608 6.12885883 -0.02051173 3.06445279 0 0 Z " fill="#101111" transform="translate(88,232)"/>
<path d="M0 0 C1.98 0 3.96 0 6 0 C6 9.57 6 19.14 6 29 C5.34 29.33 4.68 29.66 4 30 C2.85073734 29.04578192 1.70569459 28.08647955 0.5625 27.125 C-0.07558594 26.59132813 -0.71367187 26.05765625 -1.37109375 25.5078125 C-3 24 -3 24 -4 22 C-3.93996457 14.465554 -1.97236616 7.21960443 0 0 Z " fill="#636A6D" transform="translate(214,70)"/>
<path d="M0 0 C0.99 0.33 1.98 0.66 3 1 C-0.18762365 3.12508244 -2.26512223 3.5020163 -6 4 C-6 4.33 -6 4.66 -6 5 C-3.525 5.495 -3.525 5.495 -1 6 C-1.33 6.66 -1.66 7.32 -2 8 C0.97 8.495 0.97 8.495 4 9 C4 9.66 4 10.32 4 11 C4.66 10.67 5.32 10.34 6 10 C7.99960012 9.960008 10.00047242 9.95653201 12 10 C11 12 11 12 8.1953125 13.109375 C2.83649152 14.50447388 -2.62560522 14.2899956 -8.125 14.25 C-9.73181641 14.26160156 -9.73181641 14.26160156 -11.37109375 14.2734375 C-12.40621094 14.27085937 -13.44132812 14.26828125 -14.5078125 14.265625 C-15.44254395 14.26336914 -16.37727539 14.26111328 -17.34033203 14.25878906 C-20.20980017 13.97958618 -22.38774351 13.19109907 -25 12 C-24.01 11.34 -23.02 10.68 -22 10 C-21.34 10.33 -20.68 10.66 -20 11 C-20 10.01 -20 9.02 -20 8 C-20.66 7.34 -21.32 6.68 -22 6 C-21.14535156 6.01160156 -20.29070312 6.02320313 -19.41015625 6.03515625 C-17.75306641 6.04869141 -17.75306641 6.04869141 -16.0625 6.0625 C-14.40927734 6.07990234 -14.40927734 6.07990234 -12.72265625 6.09765625 C-10.08552366 6.31262571 -10.08552366 6.31262571 -9 5 C-9.99 4.34 -10.98 3.68 -12 3 C-11.21753906 2.86722656 -10.43507812 2.73445312 -9.62890625 2.59765625 C-8.61699219 2.42105469 -7.60507813 2.24445313 -6.5625 2.0625 C-5.55316406 1.88847656 -4.54382813 1.71445313 -3.50390625 1.53515625 C-1.0712562 1.25248903 -1.0712562 1.25248903 0 0 Z " fill="#AFB1B2" transform="translate(141,156)"/>
<path d="M0 0 C1.2065625 0.0309375 1.2065625 0.0309375 2.4375 0.0625 C3.1361179 2.97690599 3.8217031 5.89336087 4.5 8.8125 C4.69916016 9.6375 4.89832031 10.4625 5.10351562 11.3125 C5.28720703 12.11171875 5.47089844 12.9109375 5.66015625 13.734375 C5.91937866 14.83410645 5.91937866 14.83410645 6.18383789 15.95605469 C6.56361499 19.10977636 6.06203878 21.24723381 4.1328125 23.765625 C3.61460938 24.27609375 3.09640625 24.7865625 2.5625 25.3125 C2.04945312 25.83328125 1.53640625 26.3540625 1.0078125 26.890625 C-0.5625 28.0625 -0.5625 28.0625 -3.5625 28.0625 C-3.59136338 23.58334672 -3.60925187 19.10421709 -3.625 14.625 C-3.63337891 13.34560547 -3.64175781 12.06621094 -3.65039062 10.74804688 C-3.65361328 9.53310547 -3.65683594 8.31816406 -3.66015625 7.06640625 C-3.66539307 5.94049072 -3.67062988 4.8145752 -3.67602539 3.65454102 C-3.52395811 0.18250162 -3.47522838 0.08476167 0 0 Z " fill="#707275" transform="translate(47.5625,69.9375)"/>
<path d="M0 0 C2.31 0 4.62 0 7 0 C7 0.33 7 0.66 7 1 C5.02 1 3.04 1 1 1 C1.11834371 6.48110206 1.24259888 11.96202634 1.37231445 17.44287109 C1.41560433 19.30709192 1.45728361 21.17135088 1.49731445 23.03564453 C1.55516113 25.7165882 1.61881405 28.397341 1.68359375 31.078125 C1.70030624 31.91055725 1.71701874 32.7429895 1.73423767 33.60064697 C1.75418289 34.38115417 1.77412811 35.16166138 1.79467773 35.96582031 C1.81022202 36.64976868 1.8257663 37.33371704 1.84178162 38.03839111 C2.00935182 40.1159449 2.46927308 41.98798267 3 44 C3.07708723 45.36800819 3.10803609 46.73923592 3.09765625 48.109375 C3.09443359 48.86347656 3.09121094 49.61757812 3.08789062 50.39453125 C3.07951172 51.17183594 3.07113281 51.94914062 3.0625 52.75 C3.05798828 53.54277344 3.05347656 54.33554688 3.04882812 55.15234375 C3.03708565 57.10159508 3.01915146 59.05080738 3 61 C4.32 61.66 5.64 62.32 7 63 C7 63.66 7 64.32 7 65 C8.65 64.34 10.3 63.68 12 63 C12.33 64.32 12.66 65.64 13 67 C20.26 67.33 27.52 67.66 35 68 C34.34 66.68 33.68 65.36 33 64 C34.32 64.66 35.64 65.32 37 66 C37 66.99 37 67.98 37 69 C33.14597871 69.08770383 29.29221709 69.14062735 25.4375 69.1875 C23.80844727 69.22520508 23.80844727 69.22520508 22.14648438 69.26367188 C15.22451671 69.32679012 9.72003907 69.2029036 4.2578125 64.5 C0.82695451 59.95707081 -0.12592859 57.04565094 -0.11352539 51.42700195 C-0.11344986 50.28604568 -0.11337433 49.14508942 -0.11329651 47.96955872 C-0.10813522 46.73823715 -0.10297394 45.50691559 -0.09765625 44.23828125 C-0.0962413 42.97735153 -0.09482635 41.71642181 -0.09336853 40.4172821 C-0.08871575 37.06848291 -0.07973342 33.71975189 -0.06866455 30.37097168 C-0.05842687 26.95239857 -0.05386586 23.53381841 -0.04882812 20.11523438 C-0.03779099 13.41013739 -0.02104686 6.70507263 0 0 Z " fill="#474747" transform="translate(22,126)"/>
<path d="M0 0 C0.66 0 1.32 0 2 0 C2.66 2.31 3.32 4.62 4 7 C5.98 7 7.96 7 10 7 C9.690625 7.556875 9.38125 8.11375 9.0625 8.6875 C7.93362221 11.1444693 7.46487916 13.34354764 7 16 C6.67516582 17.33542939 6.3449145 18.66961551 6 20 C3.83125748 19.49396008 2.00032373 19.00016187 0 18 C-0.33 18.99 -0.66 19.98 -1 21 C-1.66 21 -2.32 21 -3 21 C-3.25 15.375 -3.25 15.375 -1 12 C-2.175625 11.7834375 -2.175625 11.7834375 -3.375 11.5625 C-6 11 -6 11 -8 10 C-7.67 9.01 -7.34 8.02 -7 7 C-4.69 7 -2.38 7 0 7 C0 4.69 0 2.38 0 0 Z " fill="#F0F2F3" transform="translate(132,34)"/>
<path d="M0 0 C0.33 0 0.66 0 1 0 C1.68715275 7.52050509 1.55434197 12.92652982 -3.16796875 19.03125 C-9.01665184 25.31640198 -15.74848465 29.45726394 -24.4296875 30.2109375 C-28.15029401 30.27193105 -31.40656115 30.00131779 -35 29 C-35 28.01 -35 27.02 -35 26 C-34.24976562 26.04640625 -33.49953125 26.0928125 -32.7265625 26.140625 C-22.9505414 26.48537134 -15.36096817 24.69178925 -8 18 C-5.96013981 15.20982148 -5.96013981 15.20982148 -4.25 12.125 C-3.36054688 10.61292969 -3.36054688 10.61292969 -2.453125 9.0703125 C-0.99009037 5.97906192 -0.38365431 3.38221564 0 0 Z " fill="#BEE2E3" transform="translate(158,118)"/>
<path d="M0 0 C2.7746153 0.75889478 5.54412188 1.53144586 8.3125 2.3125 C9.49102539 2.63250977 9.49102539 2.63250977 10.69335938 2.95898438 C11.45068359 3.17490234 12.20800781 3.39082031 12.98828125 3.61328125 C13.68477783 3.80704346 14.38127441 4.00080566 15.09887695 4.20043945 C17.26756064 5.11252871 18.45333496 6.25021616 20 8 C19.67 8.66 19.34 9.32 19 10 C17.0625 10.5625 17.0625 10.5625 15 11 C14.01 11.495 14.01 11.495 13 12 C10.4864671 11.32893969 8.08056875 10.59177641 5.625 9.75 C4.95210937 9.53214844 4.27921875 9.31429687 3.5859375 9.08984375 C-0.08304939 7.85481076 -3.07133231 6.55319747 -6 4 C-5.67 3.34 -5.34 2.68 -5 2 C-3.68 2 -2.36 2 -1 2 C-0.67 1.34 -0.34 0.68 0 0 Z " fill="#9FA1A3" transform="translate(102,157)"/>
<path d="M0 0 C0.66 0 1.32 0 2 0 C4.24840936 7.93861457 4.24840936 7.93861457 3.3125 11.9375 C2 14 2 14 -1 16 C-3.1875 15.625 -3.1875 15.625 -5 15 C-5.33 15.99 -5.66 16.98 -6 18 C-8.91482778 18.80967438 -10.46113217 19.21845993 -13.3125 18.0625 C-14.1478125 17.5365625 -14.1478125 17.5365625 -15 17 C-14.01 16.67 -13.02 16.34 -12 16 C-11.28910107 14.6897157 -10.62732534 13.35228885 -10 12 C-9.01534941 10.7620043 -7.99338976 9.55282297 -6.9375 8.375 C-5.33621517 6.5818742 -4.07671842 5.15343684 -3 3 C-2.01 3 -1.02 3 0 3 C0 2.01 0 1.02 0 0 Z " fill="#D1D4D7" transform="translate(168,134)"/>
<path d="M0 0 C1.32 0 2.64 0 4 0 C6.140625 2.30078125 6.140625 2.30078125 8.25 5.3125 C8.95640625 6.29863281 9.6628125 7.28476563 10.390625 8.30078125 C12 11 12 11 12 14 C9.69 13.67 7.38 13.34 5 13 C5 13.66 5 14.32 5 15 C4.01 15.495 4.01 15.495 3 16 C2.67 16.66 2.34 17.32 2 18 C-4.09411765 10.91764706 -4.09411765 10.91764706 -6 7 C-5.67 6.01 -5.34 5.02 -5 4 C-2 7.75 -2 7.75 -2 10 C-1.01 9.67 -0.02 9.34 1 9 C0.649375 8.2575 0.29875 7.515 -0.0625 6.75 C-1.04509293 3.8677274 -1.0326802 2.78823655 0 0 Z " fill="#32343D" transform="translate(68,59)"/>
<path d="M0 0 C-4.50627344 5.12782839 -10.06130626 8.68159947 -16 12 C-16.66 12 -17.32 12 -18 12 C-17.1875 10.0625 -17.1875 10.0625 -16 8 C-15.01 7.67 -14.02 7.34 -13 7 C-13.33 6.34 -13.66 5.68 -14 5 C-15.07378906 5.54269531 -16.14757812 6.08539063 -17.25390625 6.64453125 C-18.69004949 7.36729615 -20.1262505 8.08994628 -21.5625 8.8125 C-22.26697266 9.16892578 -22.97144531 9.52535156 -23.69726562 9.89257812 C-25.79082418 10.94418127 -27.8925823 11.97648266 -30 13 C-30.64308105 13.31888184 -31.28616211 13.63776367 -31.94873047 13.96630859 C-34.62262054 15.22078786 -36.46281835 16.06886944 -39.4375 15.6875 C-39.953125 15.460625 -40.46875 15.23375 -41 15 C-40.26136719 14.70867187 -39.52273437 14.41734375 -38.76171875 14.1171875 C-30.1148138 10.62326657 -21.64543569 6.86272738 -14.1875 1.1875 C-9.08393585 -2.31494599 -5.5447573 -2.77237865 0 0 Z " fill="#929495" transform="translate(198,143)"/>
<path d="M0 0 C3.71390871 1.49558174 5.92694215 4.49240621 8.02734375 7.81640625 C8.77734375 11.69140625 8.77734375 11.69140625 9.02734375 14.81640625 C9.68734375 15.14640625 10.34734375 15.47640625 11.02734375 15.81640625 C11.02734375 16.80640625 11.02734375 17.79640625 11.02734375 18.81640625 C11.68734375 18.81640625 12.34734375 18.81640625 13.02734375 18.81640625 C13.02734375 19.47640625 13.02734375 20.13640625 13.02734375 20.81640625 C5.09484859 17.20115403 -0.96920171 9.9635605 -6.97265625 3.81640625 C-2.55036503 -0.23736071 -2.55036503 -0.23736071 0 0 Z " fill="#B1B3B2" transform="translate(49.97265625,120.18359375)"/>
<path d="M0 0 C1.32 0.33 2.64 0.66 4 1 C4.33355299 5.78092614 3.58128543 8.02879164 1 12 C0.28856912 13.98451771 -0.38991336 15.98202112 -1 18 C-1.66 18 -2.32 18 -3 18 C-3.33 17.34 -3.66 16.68 -4 16 C-4.33 16.33 -4.66 16.66 -5 17 C-6.66617115 17.04063832 -8.33388095 17.042721 -10 17 C-10 13 -10 13 -7.8125 10.75 C-6.884375 9.8425 -5.95625 8.935 -5 8 C-3.2109864 5.40351269 -1.58800779 2.72326442 0 0 Z " fill="#898C8D" transform="translate(84,170)"/>
<path d="M0 0 C2.31 0 4.62 0 7 0 C7 0.66 7 1.32 7 2 C7.59425781 2.25136719 8.18851563 2.50273437 8.80078125 2.76171875 C13.32814275 5.31087256 16.44113289 10.0838842 17.875 15 C17.91625 15.66 17.9575 16.32 18 17 C16.02 17.99 16.02 17.99 14 19 C13.505 18.01 13.01 17.02 12.5 16 C9.6488359 10.97456687 5.23230096 5.61615048 0 3 C0 2.01 0 1.02 0 0 Z " fill="#77797D" transform="translate(193,160)"/>
<path d="M0 0 C0.875 2.0625 0.875 2.0625 1 5 C-2.18735334 10.23115244 -7.28680354 14.19318747 -12 18 C-14.475 17.01 -14.475 17.01 -17 16 C-17 13 -17 13 -15.35546875 11.2109375 C-14.64003906 10.60507813 -13.92460938 9.99921875 -13.1875 9.375 C-12.47980469 8.76398438 -11.77210937 8.15296875 -11.04296875 7.5234375 C-9 6 -9 6 -6 5 C-5.67 4.01 -5.34 3.02 -5 2 C-2 0 -2 0 0 0 Z " fill="#5E6870" transform="translate(76,164)"/>
<path d="M0 0 C6.52307692 -0.36923077 6.52307692 -0.36923077 8.9375 1.5 C9.288125 1.995 9.63875 2.49 10 3 C9.67 3.99 9.34 4.98 9 6 C9.66 6.66 10.32 7.32 11 8 C8.36 8 5.72 8 3 8 C2.67 9.32 2.34 10.64 2 12 C1.113125 11.360625 0.22625 10.72125 -0.6875 10.0625 C-3.69211428 8.19170243 -5.5510371 7.40576034 -9 7 C-7.875 5.0625 -7.875 5.0625 -6 3 C-2.8125 2.25 -2.8125 2.25 0 2 C0 1.34 0 0.68 0 0 Z " fill="#222E3A" transform="translate(127,88)"/>
<path d="M0 0 C0.66 0.33 1.32 0.66 2 1 C2.625 4.0625 2.625 4.0625 3 7 C2.34 7 1.68 7 1 7 C1.33 15.58 1.66 24.16 2 33 C2.66 33 3.32 33 4 33 C3.505 35.475 3.505 35.475 3 38 C-1.29 38 -5.58 38 -10 38 C-10 37.01 -10 36.02 -10 35 C-8 34 -8 34 0 34 C0 22.78 0 11.56 0 0 Z " fill="#181819" transform="translate(87,225)"/>
<path d="M0 0 C6.71626458 0.76757309 10.72333982 5.2988002 14.90625 10.25 C16 12 16 12 15.875 14.9375 C15.441875 15.9584375 15.441875 15.9584375 15 17 C12.57896172 16.61398106 11.28664382 16.28874728 9.53613281 14.52539062 C9.09624023 13.90857422 8.65634766 13.29175781 8.203125 12.65625 C7.47802734 11.65271484 7.47802734 11.65271484 6.73828125 10.62890625 C6.24714844 9.92636719 5.75601563 9.22382813 5.25 8.5 C4.74339844 7.79746094 4.23679688 7.09492188 3.71484375 6.37109375 C0 1.17431772 0 1.17431772 0 0 Z " fill="#7B7C81" transform="translate(183,166)"/>
<path d="M0 0 C5.34427824 1.78142608 9.37345519 5.03570367 13.828125 8.3671875 C17.11454594 10.78199245 20.08525426 12.69508475 24 14 C23.34 15.32 22.68 16.64 22 18 C20.35 17.01 18.7 16.02 17 15 C17 15.99 17 16.98 17 18 C16.34 17.67 15.68 17.34 15 17 C15 16.34 15 15.68 15 15 C13.48772933 13.6697891 11.91330976 12.40972409 10.3125 11.1875 C6.61638153 8.2987606 3.10593703 5.52006197 0 2 C0 1.34 0 0.68 0 0 Z " fill="#B9B8B7" transform="translate(190,102)"/>
<path d="M0 0 C1.32 0.33 2.64 0.66 4 1 C3.47588057 5.41530912 1.91774457 7.83323558 -0.875 11.25 C-1.92300781 12.55710938 -1.92300781 12.55710938 -2.9921875 13.890625 C-5 16 -5 16 -8 17 C-8.99 16.34 -9.98 15.68 -11 15 C-11 14.34 -11 13.68 -11 13 C-10.41734375 12.78601563 -9.8346875 12.57203125 -9.234375 12.3515625 C-6.23341439 10.53629612 -5.05522539 8.36056506 -3.25 5.375 C-2.63640625 4.37210938 -2.0228125 3.36921875 -1.390625 2.3359375 C-0.93171875 1.56507813 -0.4728125 0.79421875 0 0 Z " fill="#6C7276" transform="translate(61,157)"/>
<path d="M0 0 C0.66 0 1.32 0 2 0 C1.71769203 7.48116133 -1.18344183 12.65074114 -5 19 C-5.99 19 -6.98 19 -8 19 C-7.87144782 11.02976498 -5.36507517 5.93503697 0 0 Z " fill="#607787" transform="translate(208,66)"/>
<path d="M0 0 C1.32 0.66 2.64 1.32 4 2 C3.85966889 3.97956441 3.7125877 5.95865141 3.5625 7.9375 C3.48128906 9.03964844 3.40007812 10.14179688 3.31640625 11.27734375 C3 14 3 14 2 15 C-0.33297433 15.04092937 -2.66705225 15.04241723 -5 15 C-4.37321829 11.33827525 -3.35548154 8.1181005 -1.9375 4.6875 C-1.39416016 3.36298828 -1.39416016 3.36298828 -0.83984375 2.01171875 C-0.56269531 1.34785156 -0.28554687 0.68398437 0 0 Z " fill="#46484B" transform="translate(108,178)"/>
<path d="M0 0 C1.28795663 3.86386989 0.40856744 4.89303049 -1.3125 8.5 C-1.76238281 9.4590625 -2.21226562 10.418125 -2.67578125 11.40625 C-4 14 -4 14 -6 17 C-6.66 16.34 -7.32 15.68 -8 15 C-7.67 14.01 -7.34 13.02 -7 12 C-7.99 12 -8.98 12 -10 12 C-9.48964169 7.6109185 -8.47785723 4.66291938 -6 1 C-4.35 1.33 -2.7 1.66 -1 2 C-0.67 1.34 -0.34 0.68 0 0 Z " fill="#0F1216" transform="translate(179,52)"/>
<path d="M0 0 C0.99 0 1.98 0 3 0 C3.103125 1.155 3.20625 2.31 3.3125 3.5 C3.77729913 7.36193392 4.91051751 10.58286348 6.3671875 14.16796875 C7.17262676 16.49976512 7.22914847 18.55574969 7 21 C4.16540884 19.97573597 3.16829411 19.31788888 1.734375 16.609375 C-1.6227758 6.85765125 -1.6227758 6.85765125 -1 2 C-0.67 1.34 -0.34 0.68 0 0 Z " fill="#7A7F81" transform="translate(114,38)"/>
<path d="M0 0 C0.66 1.32 1.32 2.64 2 4 C0.56328432 4.64757625 -0.87440416 5.29299453 -2.3125 5.9375 C-3.11300781 6.29714844 -3.91351563 6.65679687 -4.73828125 7.02734375 C-8.12438428 8.4835435 -10.7776608 9.13734347 -14.4375 9.125 C-15.58025391 9.12886719 -15.58025391 9.12886719 -16.74609375 9.1328125 C-18.95315859 9.00276015 -20.87969276 8.60856199 -23 8 C-23 7.01 -23 6.02 -23 5 C-21.87464844 5.06960937 -21.87464844 5.06960937 -20.7265625 5.140625 C-13.28328085 5.40310848 -7.62934096 4.46059937 -1 1 C-0.67 0.67 -0.34 0.34 0 0 Z " fill="#9EDCE6" transform="translate(146,139)"/>
<path d="M0 0 C2.32421875 0.21484375 2.32421875 0.21484375 5 1 C6.58203125 3.06640625 6.58203125 3.06640625 7.8125 5.5625 C8.23144531 6.38878906 8.65039062 7.21507812 9.08203125 8.06640625 C9.38496094 8.70449219 9.68789062 9.34257812 10 10 C9.01 10.33 8.02 10.66 7 11 C5.79117904 13.00016466 5.79117904 13.00016466 5 15 C3.77243105 13.26343905 2.56843147 11.51019623 1.375 9.75 C0.36566406 8.28820312 0.36566406 8.28820312 -0.6640625 6.796875 C-2 4 -2 4 -1.2109375 1.640625 C-0.81132813 1.09921875 -0.41171875 0.5578125 0 0 Z " fill="#E4E4E7" transform="translate(94,135)"/>
<path d="M0 0 C0.99 0 1.98 0 3 0 C6.91118948 4.13554069 11.56143787 9.21573934 11.5 15.1875 C11.335 16.115625 11.17 17.04375 11 18 C10.01 18 9.02 18 8 18 C6.66180502 15.3773768 5.3292849 12.75213401 4 10.125 C3.6184375 9.37863281 3.236875 8.63226563 2.84375 7.86328125 C2.4828125 7.14785156 2.121875 6.43242188 1.75 5.6953125 C1.41484375 5.03547363 1.0796875 4.37563477 0.734375 3.69580078 C0 2 0 2 0 0 Z " fill="#A8ACB4" transform="translate(53,67)"/>
<path d="M0 0 C1.32 0 2.64 0 4 0 C3.49228528 5.96564796 1.61407872 10.63809899 -1 16 C-1.99 16 -2.98 16 -4 16 C-4.5326514 9.741346 -2.81849506 5.54891215 0 0 Z " fill="#71777C" transform="translate(169,49)"/>
<path d="M0 0 C0.99 0 1.98 0 3 0 C4.50974035 7.09038772 5.28307925 13.75002578 5 21 C4.34 20.34 3.68 19.68 3 19 C2.01 20.32 1.02 21.64 0 23 C0 15.41 0 7.82 0 0 Z " fill="#0C1E30" transform="translate(155,105)"/>
<path d="M0 0 C2.75839416 0.35979054 3.81119295 0.79040685 5.703125 2.890625 C6.21359375 3.66921875 6.7240625 4.4478125 7.25 5.25 C8.03117188 6.40242187 8.03117188 6.40242187 8.828125 7.578125 C10.13357118 10.2760471 10.23080473 12.04150297 10 15 C8.203125 14.8359375 8.203125 14.8359375 6 14 C4.296875 11.6015625 4.296875 11.6015625 2.75 8.625 C2.22921875 7.64789063 1.7084375 6.67078125 1.171875 5.6640625 C0 3 0 3 0 0 Z " fill="#616B71" transform="translate(163,176)"/>
<path d="M0 0 C0.99 0.33 1.98 0.66 3 1 C2.80110472 5.56464658 2.54819031 9.07374742 0.1875 13.0625 C-2 15 -2 15 -6 15 C-4.36041242 9.76727367 -2.61047965 4.84803364 0 0 Z " fill="#7A7E81" transform="translate(97,176)"/>
<path d="M0 0 C0.66 0.66 1.32 1.32 2 2 C1.69041608 7.26292658 0.20481515 11.30278511 -2 16 C-4.5119293 13.38340697 -4.99048487 12.13559064 -5.25 8.4375 C-5 5 -5 5 -4 2 C-2.68 2 -1.36 2 0 2 C0 1.34 0 0.68 0 0 Z " fill="#CACCCD" transform="translate(175,126)"/>
<path d="M0 0 C0.66 0 1.32 0 2 0 C2.22937511 4.71652565 1.46206455 8.3974273 0 12.875 C-0.37125 14.02742188 -0.7425 15.17984375 -1.125 16.3671875 C-1.41375 17.23601563 -1.7025 18.10484375 -2 19 C-2.99 19 -3.98 19 -5 19 C-5.8089913 11.8808766 -2.93279777 6.37883514 0 0 Z " fill="#858B90" transform="translate(150,38)"/>
<path d="M0 0 C1.98 0 3.96 0 6 0 C6 3.3 6 6.6 6 10 C4.00045254 10.04254356 1.99958364 10.04080783 0 10 C-0.33 9.67 -0.66 9.34 -1 9 C-0.91062197 7.47480724 -0.75462854 5.95318071 -0.5625 4.4375 C-0.46066406 3.61121094 -0.35882813 2.78492188 -0.25390625 1.93359375 C-0.17011719 1.29550781 -0.08632812 0.65742188 0 0 Z " fill="#383838" transform="translate(119,182)"/>
<path d="M0 0 C6.52307692 1.35384615 6.52307692 1.35384615 8.9375 4.625 C9.288125 5.40875 9.63875 6.1925 10 7 C9.2575 6.79375 8.515 6.5875 7.75 6.375 C5.02428249 5.70251964 5.02428249 5.70251964 3.125 7.1875 C1 8 1 8 -0.8046875 7.24609375 C-2.57392371 6.22647368 -4.29089619 5.11749095 -6 4 C-5.67 3.34 -5.34 2.68 -5 2 C-3.68 2 -2.36 2 -1 2 C-0.67 1.34 -0.34 0.68 0 0 Z " fill="#999B9D" transform="translate(102,157)"/>
<path d="M0 0 C4.45277055 1.48425685 6.91804669 4.96151225 9 9 C9.3125 12.4375 9.3125 12.4375 9 15 C8.01 15 7.02 15 6 15 C4.98965502 13.25595212 3.99207578 11.50450439 3 9.75 C2.1646875 8.28820312 2.1646875 8.28820312 1.3125 6.796875 C0 4 0 4 0 0 Z " fill="#999EA3" transform="translate(91,49)"/>
<path d="M0 0 C5.99291003 0.41330414 9.25036599 1.31903365 14 5 C13.67 5.99 13.34 6.98 13 8 C7.93001981 7.34580901 3.58009223 5.1453591 -1 3 C-0.67 2.01 -0.34 1.02 0 0 Z " fill="#878A8B" transform="translate(88,152)"/>
<path d="M0 0 C3.36165806 1.41043479 5.09505232 3.01526034 7.25 5.9375 C8.03117187 6.97197266 8.03117187 6.97197266 8.828125 8.02734375 C10 10 10 10 10 13 C8.35 13 6.7 13 5 13 C4.15615325 11.58957044 3.32530504 10.17135868 2.5 8.75 C2.0359375 7.96109375 1.571875 7.1721875 1.09375 6.359375 C0 4 0 4 0 0 Z " fill="#B2B6BE" transform="translate(70,60)"/>
<path d="M0 0 C-0.32652507 5.22440104 -3.3893345 9.38035275 -7 13 C-7.99 13 -8.98 13 -10 13 C-9.74483901 7.76919965 -7.85862875 5.13740322 -4.5703125 1.3203125 C-3 0 -3 0 0 0 Z " fill="#4F5256" transform="translate(202,63)"/>
<path d="M0 0 C3.53085133 1.46077256 5.39994596 3.32471762 7.75 6.3125 C8.36359375 7.07175781 8.9771875 7.83101562 9.609375 8.61328125 C11.191344 11.3284022 11.2842983 12.91098964 11 16 C7.45470774 14.56188795 5.89221403 12.8685536 3.8125 9.6875 C3.30332031 8.92824219 2.79414063 8.16898438 2.26953125 7.38671875 C0.94530959 4.89718203 0.40790649 2.77671284 0 0 Z " fill="#808386" transform="translate(174,172)"/>
<path d="M0 0 C1 3 1 3 -0.1875 5.4375 C-1.93979049 7.91487622 -3.78315483 9.9360407 -6 12 C-8.475 11.01 -8.475 11.01 -11 10 C-11 9.01 -11 8.02 -11 7 C-10.18595703 6.61908203 -10.18595703 6.61908203 -9.35546875 6.23046875 C-8.64003906 5.88628906 -7.92460938 5.54210937 -7.1875 5.1875 C-6.47980469 4.85105469 -5.77210937 4.51460937 -5.04296875 4.16796875 C-2.98870965 2.99354529 -1.58383722 1.74371984 0 0 Z " fill="#6A7886" transform="translate(70,170)"/>
<path d="M0 0 C0.33 0 0.66 0 1 0 C1 1.65 1 3.3 1 5 C1.99 5.33 2.98 5.66 4 6 C6.1875 7.9375 6.1875 7.9375 8 10 C8 10.66 8 11.32 8 12 C9.32 12.33 10.64 12.66 12 13 C12 13.99 12 14.98 12 16 C6.18148783 14.72276562 2.63664082 11.56193997 -1 7 C-1 6.34 -1 5.68 -1 5 C-1.66 5 -2.32 5 -3 5 C-2.67 4.34 -2.34 3.68 -2 3 C-1.34 3.33 -0.68 3.66 0 4 C0 2.68 0 1.36 0 0 Z " fill="#20344B" transform="translate(111,130)"/>
<path d="M0 0 C1 2 2 4 3 6 C3.66 5.01 4.32 4.02 5 3 C5 8.61 5 14.22 5 20 C2.85357551 16.78036326 1.64118646 13.55570141 0.375 9.9375 C0.14554688 9.30005859 -0.08390625 8.66261719 -0.3203125 8.00585938 C-2 3.261742 -2 3.261742 -2 1 C-1.34 0.67 -0.68 0.34 0 0 Z " fill="#202625" transform="translate(180,214)"/>
<path d="M0 0 C0.99 0 1.98 0 3 0 C2.62834433 5.94649079 0.85341397 10.37830412 -3 15 C-3.66 15 -4.32 15 -5 15 C-5.30017023 10.83513802 -4.45324946 8.34984273 -2.5 4.6875 C-2.0359375 3.80449219 -1.571875 2.92148437 -1.09375 2.01171875 C-0.7328125 1.34785156 -0.371875 0.68398438 0 0 Z " fill="#ADB2B6" transform="translate(180,53)"/>
<path d="M0 0 C0.99 0 1.98 0 3 0 C4.82421875 2.3359375 4.82421875 2.3359375 6.6875 5.375 C7.31011719 6.37273438 7.93273437 7.37046875 8.57421875 8.3984375 C10 11 10 11 10 13 C8.68 13 7.36 13 6 13 C4.296875 11.171875 4.296875 11.171875 2.75 8.75 C2.22921875 7.96109375 1.7084375 7.1721875 1.171875 6.359375 C0 4 0 4 0 0 Z " fill="#B4B8BD" transform="translate(80,54)"/>
<path d="M0 0 C2.40004292 0.96200067 3.72816741 1.53139307 5.046875 3.8046875 C5.27890625 4.48789063 5.5109375 5.17109375 5.75 5.875 C5.99234375 6.55304688 6.2346875 7.23109375 6.484375 7.9296875 C7 10 7 10 7 14 C5.125 13.75 5.125 13.75 3 13 C1.20105694 10.1216911 0.67084908 7.60295627 0.375 4.25 C0.30023438 3.45078125 0.22546875 2.6515625 0.1484375 1.828125 C0.09945312 1.22484375 0.05046875 0.6215625 0 0 Z " fill="#75808D" transform="translate(154,180)"/>
<path d="M0 0 C-0.99 1.485 -0.99 1.485 -2 3 C-2 3.66 -2 4.32 -2 5 C-6.29 5 -10.58 5 -15 5 C-15 4.34 -15 3.68 -15 3 C-14.34 3 -13.68 3 -13 3 C-13 2.34 -13 1.68 -13 1 C-8.59085217 -0.10228696 -4.51617599 -0.07654536 0 0 Z " fill="#BDC0BE" transform="translate(139,165)"/>
<path d="M0 0 C1.33332095 2.6666419 0.67102033 4.16680303 0 7 C1.32 7.33 2.64 7.66 4 8 C3.67 8.99 3.34 9.98 3 11 C2.34 11 1.68 11 1 11 C0.67 10.34 0.34 9.68 0 9 C-0.33 9.33 -0.66 9.66 -1 10 C-2.66617115 10.04063832 -4.33388095 10.042721 -6 10 C-6 6 -6 6 -3.5625 3.3125 C-2.716875 2.549375 -1.87125 1.78625 -1 1 C-0.67 0.67 -0.34 0.34 0 0 Z " fill="#4B4D4F" transform="translate(80,177)"/>
<path d="M0 0 C-0.49730652 4.97306516 -1.55302334 8.63799813 -4 13 C-4.66 13 -5.32 13 -6 13 C-7.1875 10.875 -7.1875 10.875 -8 8 C-6.80203116 4.60575494 -5.92922013 2.60126008 -2.875 0.625 C-1 0 -1 0 0 0 Z " fill="#080E16" transform="translate(205,66)"/>
<path d="M0 0 C0.99 0 1.98 0 3 0 C3.82200425 6.24723226 0.92551394 10.71317837 -2 16 C-2.33 16 -2.66 16 -3 16 C-3.37851209 10.06997733 -2.10575375 5.52760359 0 0 Z " fill="#859298" transform="translate(159,44)"/>
<path d="M0 0 C2 1 2 1 3.125 4.1875 C3.93898401 7.73414461 4.47977617 10.40167875 4 14 C2.68 15.32 1.36 16.64 0 18 C0 12.06 0 6.12 0 0 Z " fill="#111514" transform="translate(173,227)"/>
<path d="M0 0 C0.33 0 0.66 0 1 0 C1.06058594 0.96421875 1.12117188 1.9284375 1.18359375 2.921875 C1.26738281 4.18515625 1.35117187 5.4484375 1.4375 6.75 C1.51871094 8.00296875 1.59992187 9.2559375 1.68359375 10.546875 C1.88058225 13.81400249 1.88058225 13.81400249 2.59375 16.15625 C3.13095348 18.59432735 2.66451572 20.34193711 2.0625 22.75 C1.86785156 23.54921875 1.67320313 24.3484375 1.47265625 25.171875 C1.31667969 25.77515625 1.16070313 26.3784375 1 27 C3.31 27 5.62 27 8 27 C8 27.33 8 27.66 8 28 C5.36 28 2.72 28 0 28 C0 18.76 0 9.52 0 0 Z " fill="#B4B6B7" transform="translate(23,86)"/>
<path d="M0 0 C0.99 0 1.98 0 3 0 C2.60025786 5.79626107 1.89748407 9.41472463 -2 14 C-2.99 14 -3.98 14 -5 14 C-3.46527032 9.27775484 -1.76054874 4.64144669 0 0 Z " fill="#8A9297" transform="translate(189,58)"/>
<path d="M0 0 C0.66 0 1.32 0 2 0 C3.00732399 1.93370231 4.00563288 3.87210306 5 5.8125 C5.8353125 7.43091797 5.8353125 7.43091797 6.6875 9.08203125 C8 12 8 12 8 15 C7.01 15 6.02 15 5 15 C4.15415002 13.44424022 3.32381601 11.8800388 2.5 10.3125 C2.0359375 9.44238281 1.571875 8.57226562 1.09375 7.67578125 C-0.04818792 4.88211171 -0.21504208 2.98370887 0 0 Z " fill="#A3A5AA" transform="translate(102,44)"/>
<path d="M0 0 C3.13671875 -0.390625 3.13671875 -0.390625 6.6875 -0.25 C8.45673828 -0.19585937 8.45673828 -0.19585937 10.26171875 -0.140625 C11.61716797 -0.07101563 11.61716797 -0.07101563 13 0 C13 0.99 13 1.98 13 3 C5.08 3.495 5.08 3.495 -3 4 C-2.01 2.68 -1.02 1.36 0 0 Z " fill="#3E536C" transform="translate(121,91)"/>
<path d="M0 0 C0.99 0 1.98 0 3 0 C3 1.32 3 2.64 3 4 C3.66 4 4.32 4 5 4 C4.67 7.63 4.34 11.26 4 15 C2 14 2 14 0.875 10.875 C0.02244801 7.09941262 -0.15729024 3.85361088 0 0 Z " fill="#090C12" transform="translate(51,72)"/>
<path d="M0 0 C0.99 0.495 0.99 0.495 2 1 C2.625 4.0625 2.625 4.0625 3 7 C2.34 7 1.68 7 1 7 C1 15.91 1 24.82 1 34 C0.67 34 0.34 34 0 34 C0 22.78 0 11.56 0 0 Z " fill="#2D2E2E" transform="translate(87,225)"/>
<path d="M0 0 C0.33 2.31 0.66 4.62 1 7 C1.66 7 2.32 7 3 7 C3 7.66 3 8.32 3 9 C-0.59905908 8.44449305 -1.99909799 7.25112752 -4.25 4.4375 C-4.77078125 3.79683594 -5.2915625 3.15617187 -5.828125 2.49609375 C-6.21484375 2.00238281 -6.6015625 1.50867188 -7 1 C-3.375 -1.125 -3.375 -1.125 0 0 Z " fill="#BFC2C0" transform="translate(50,122)"/>
<path d="M0 0 C4.42350331 0.50554324 6.78071602 1.95015202 10 5 C11.8125 7.75 11.8125 7.75 13 10 C12.01 10.495 12.01 10.495 11 11 C11 10.34 11 9.68 11 9 C10.0409375 8.8453125 10.0409375 8.8453125 9.0625 8.6875 C8.0415625 8.3471875 8.0415625 8.3471875 7 8 C6.67 7.01 6.34 6.02 6 5 C5.01 5 4.02 5 3 5 C1.3125 2.5 1.3125 2.5 0 0 Z " fill="#727478" transform="translate(183,166)"/>
<path d="M0 0 C0.639375 0.598125 1.27875 1.19625 1.9375 1.8125 C7.99161613 6.13686866 14.70464191 7.33678563 22 8 C22 8.33 22 8.66 22 9 C15.35590042 9.21432579 9.46794133 8.51233701 3 7 C3 6.34 3 5.68 3 5 C2.34 5 1.68 5 1 5 C0.67 3.35 0.34 1.7 0 0 Z " fill="#072339" transform="translate(113,140)"/>
<path d="M0 0 C0.99 0.99 1.98 1.98 3 3 C2.07213211 4.00894372 1.13231567 5.00690907 0.1875 6 C-0.59560547 6.8353125 -0.59560547 6.8353125 -1.39453125 7.6875 C-3 9 -3 9 -6 9 C-5.67 6.36 -5.34 3.72 -5 1 C-3.35 1.33 -1.7 1.66 0 2 C0 1.34 0 0.68 0 0 Z " fill="#C0C0BD" transform="translate(219,117)"/>
<path d="M0 0 C2.0078125 0.23046875 2.0078125 0.23046875 5.0078125 2.23046875 C5.0078125 2.89046875 5.0078125 3.55046875 5.0078125 4.23046875 C1.3778125 4.23046875 -2.2521875 4.23046875 -5.9921875 4.23046875 C-6.3221875 3.24046875 -6.6521875 2.25046875 -6.9921875 1.23046875 C-5.11574989 -0.64596886 -2.49413049 0.05061888 0 0 Z " fill="#191C1C" transform="translate(153.9921875,258.76953125)"/>
<path d="M0 0 C0.99 0 1.98 0 3 0 C3 1.65 3 3.3 3 5 C2.34 5 1.68 5 1 5 C1.57344937 7.86724686 1.8614515 8.8614515 4 11 C3.01 11.495 3.01 11.495 2 12 C1.53101037 14.8159849 1.53101037 14.8159849 1.375 18.0625 C1.30023438 19.16722656 1.22546875 20.27195313 1.1484375 21.41015625 C1.09945312 22.26480469 1.05046875 23.11945313 1 24 C0.67 24 0.34 24 0 24 C-0.6976874 15.85315786 -1.28162626 8.11696631 0 0 Z " fill="#0C0E10" transform="translate(110,202)"/>
<path d="M0 0 C1 2 1 2 0.44140625 4.1640625 C0.15136719 4.97617188 -0.13867188 5.78828125 -0.4375 6.625 C-0.72496094 7.44226563 -1.01242188 8.25953125 -1.30859375 9.1015625 C-1.65083984 10.04128906 -1.65083984 10.04128906 -2 11 C-0.35 10.01 1.3 9.02 3 8 C2.34 9.32 1.68 10.64 1 12 C0.01 12 -0.98 12 -2 12 C-0.68 13.65 0.64 15.3 2 17 C-1.24208567 16.64950425 -2.61527704 16.43778819 -4.8125 13.9375 C-5.204375 13.298125 -5.59625 12.65875 -6 12 C-5.34 12 -4.68 12 -4 12 C-3.896875 11.319375 -3.79375 10.63875 -3.6875 9.9375 C-2.85274981 6.37084011 -1.50527246 3.33777806 0 0 Z " fill="#4F5357" transform="translate(52,158)"/>
<path d="M0 0 C1.32 0.33 2.64 0.66 4 1 C3.25 5.75 3.25 5.75 1 8 C-0.32 8 -1.64 8 -3 8 C-2.45276317 4.62537285 -1.9451 2.91765 0 0 Z " fill="#84888D" transform="translate(61,157)"/>
<path d="M0 0 C1.32 0.33 2.64 0.66 4 1 C4 4.3 4 7.6 4 11 C3.01 10.67 2.02 10.34 1 10 C-0.60725635 6.78548731 -0.05748185 3.56387464 0 0 Z " fill="#B0BAC8" transform="translate(143,182)"/>
<path d="M0 0 C-0.99 0.33 -1.98 0.66 -3 1 C-3 1.66 -3 2.32 -3 3 C-5.52475462 4.26237731 -7.31200466 4.09856404 -10.125 4.0625 C-11.03507813 4.05347656 -11.94515625 4.04445312 -12.8828125 4.03515625 C-13.58148438 4.02355469 -14.28015625 4.01195312 -15 4 C-15 3.34 -15 2.68 -15 2 C-13.06524329 1.46906676 -11.12706845 0.95057683 -9.1875 0.4375 C-8.10855469 0.14746094 -7.02960938 -0.14257812 -5.91796875 -0.44140625 C-3 -1 -3 -1 0 0 Z " fill="#939695" transform="translate(156,160)"/>
<path d="M0 0 C1.3303125 0.4021875 1.3303125 0.4021875 2.6875 0.8125 C2.6875 2.4625 2.6875 4.1125 2.6875 5.8125 C-0.9425 5.4825 -4.5725 5.1525 -8.3125 4.8125 C-4.12788462 -0.23365385 -4.12788462 -0.23365385 0 0 Z " fill="#989799" transform="translate(197.3125,137.1875)"/>
<path d="M0 0 C0.33 0.99 0.66 1.98 1 3 C-3.30769231 7.92307692 -3.30769231 7.92307692 -6.8125 8.3125 C-7.534375 8.209375 -8.25625 8.10625 -9 8 C-8.75390625 6.140625 -8.75390625 6.140625 -8 4 C-6.15234375 2.734375 -6.15234375 2.734375 -3.9375 1.75 C-2.83728516 1.24726563 -2.83728516 1.24726563 -1.71484375 0.734375 C-1.14894531 0.49203125 -0.58304688 0.2496875 0 0 Z " fill="#B2BABA" transform="translate(184,147)"/>
<path d="M0 0 C0.33 0 0.66 0 1 0 C1.08160748 1.89510699 1.13946459 3.79124504 1.1875 5.6875 C1.22230469 6.74324219 1.25710937 7.79898438 1.29296875 8.88671875 C0.96409165 12.38158604 0.12293836 14.22938553 -2 17 C-2.66 17 -3.32 17 -4 17 C-2.76123355 11.30694567 -1.43723997 5.64629987 0 0 Z " fill="#CBE4ED" transform="translate(158,118)"/>
<path d="M0 0 C1 1 2 2 3 3 C4.299375 4.2684375 4.299375 4.2684375 5.625 5.5625 C8 8 8 8 9 10 C6.33333333 10 3.66666667 10 1 10 C0.34 9.34 -0.32 8.68 -1 8 C-0.67 7.34 -0.34 6.68 0 6 C0.039992 4.00039988 0.04346799 1.99952758 0 0 Z " fill="#1E2029" transform="translate(63,68)"/>
<path d="M0 0 C0.99 0.33 1.98 0.66 3 1 C2.67 7.6 2.34 14.2 2 21 C1.34 21.33 0.68 21.66 0 22 C0 14.74 0 7.48 0 0 Z " fill="#101E32" transform="translate(159,110)"/>
<path d="M0 0 C0.33 0 0.66 0 1 0 C1 1.98 1 3.96 1 6 C0.01 6.33 -0.98 6.66 -2 7 C-2.33 7.66 -2.66 8.32 -3 9 C-5.31 9 -7.62 9 -10 9 C-9.67 7.68 -9.34 6.36 -9 5 C-6.03 5 -3.06 5 0 5 C0 3.35 0 1.7 0 0 Z " fill="#262A2A" transform="translate(110,254)"/>
<path d="M0 0 C2.31 0 4.62 0 7 0 C7 0.66 7 1.32 7 2 C7.639375 2.28875 8.27875 2.5775 8.9375 2.875 C11 4 11 4 12 6 C11.01 6 10.02 6 9 6 C8.67 5.34 8.34 4.68 8 4 C7.01 3.67 6.02 3.34 5 3 C4.67 3.99 4.34 4.98 4 6 C2 4.6875 2 4.6875 0 3 C0 2.01 0 1.02 0 0 Z " fill="#595A5D" transform="translate(193,160)"/>
<path d="M0 0 C1.32 0 2.64 0 4 0 C3.67 8.58 3.34 17.16 3 26 C2.67 26 2.34 26 2 26 C1.67 18.41 1.34 10.82 1 3 C0.01 3 -0.98 3 -2 3 C-1.34 2.01 -0.68 1.02 0 0 Z " fill="#34383B" transform="translate(217,140)"/>
<path d="M0 0 C3.69459731 0.19970796 4.78742451 0.76444338 7.3125 3.5625 C8.1478125 4.7690625 8.1478125 4.7690625 9 6 C8.01 6.99 7.02 7.98 6 9 C5.67 8.01 5.34 7.02 5 6 C4.01 6 3.02 6 2 6 C2.33 4.68 2.66 3.36 3 2 C1.02 2.99 -0.96 3.98 -3 5 C-1.125 1.125 -1.125 1.125 0 0 Z " fill="#24262B" transform="translate(199,61)"/>
<path d="M0 0 C0.66 0 1.32 0 2 0 C3.12862175 5.36095333 3.09688221 10.55306686 3 16 C2.34 15.34 1.68 14.68 1 14 C0.34 14.66 -0.32 15.32 -1 16 C-0.67 10.72 -0.34 5.44 0 0 Z " fill="#5E7D98" transform="translate(157,110)"/>
<path d="M0 0 C5.875 1.875 5.875 1.875 7 3 C7.08713831 4.70772358 7.10700007 6.41898649 7.09765625 8.12890625 C7.09282227 9.68061523 7.09282227 9.68061523 7.08789062 11.26367188 C7.07951172 12.35228516 7.07113281 13.44089844 7.0625 14.5625 C7.05798828 15.65498047 7.05347656 16.74746094 7.04882812 17.87304688 C7.03699826 20.58208495 7.02051543 23.29101599 7 26 C6.67 26 6.34 26 6 26 C6 18.74 6 11.48 6 4 C4.68 3.67 3.36 3.34 2 3 C1.34 2.01 0.68 1.02 0 0 Z " fill="#8E8E90" transform="translate(234,54)"/>
<path d="M0 0 C3.63 0 7.26 0 11 0 C11 1.32 11 2.64 11 4 C9.375 4.6875 9.375 4.6875 7 5 C1.33333333 2.66666667 1.33333333 2.66666667 0 0 Z " fill="#E7E9EA" transform="translate(90,150)"/>
<path d="M0 0 C0.33 0 0.66 0 1 0 C1.19466332 1.79090253 1.38051213 3.58276505 1.5625 5.375 C1.66691406 6.37273437 1.77132812 7.37046875 1.87890625 8.3984375 C2 11 2 11 1 13 C0.01 13 -0.98 13 -2 13 C-2.05447047 11.58376784 -2.09300508 10.16691809 -2.125 8.75 C-2.14820312 7.96109375 -2.17140625 7.1721875 -2.1953125 6.359375 C-1.9828378 3.79268059 -1.28654105 2.2083933 0 0 Z " fill="#444D52" transform="translate(108,104)"/>
<path d="M0 0 C0.99 0.99 1.98 1.98 3 3 C2.71125 3.556875 2.4225 4.11375 2.125 4.6875 C0.9586747 7.08494645 -0.0339881 9.51596939 -1 12 C-3 10 -3 10 -3.3125 7.6875 C-2.94065148 4.48960271 -1.80447532 2.63152651 0 0 Z " fill="#101117" transform="translate(163,180)"/>
<path d="M0 0 C0.89203125 0.00902344 1.7840625 0.01804688 2.703125 0.02734375 C3.37859375 0.03894531 4.0540625 0.05054688 4.75 0.0625 C2.0156934 2.7968066 -0.01993555 3.01590665 -3.828125 3.16015625 C-4.70984375 3.14855469 -5.5915625 3.13695312 -6.5 3.125 C-7.39203125 3.11597656 -8.2840625 3.10695312 -9.203125 3.09765625 C-9.87859375 3.08605469 -10.5540625 3.07445312 -11.25 3.0625 C-7.92392552 -0.26357448 -4.54621004 -0.05981855 0 0 Z " fill="#162F47" transform="translate(136.25,141.9375)"/>
<path d="M0 0 C0.33 0 0.66 0 1 0 C1.27264574 8.62242152 1.27264574 8.62242152 -1.84765625 12 C-3.84566745 13.46591298 -5.83900413 14.78905471 -8 16 C-8.66 15.67 -9.32 15.34 -10 15 C-9.071875 14.278125 -8.14375 13.55625 -7.1875 12.8125 C-2.86431123 9.19284903 -0.80272977 5.61910838 0 0 Z " fill="#748185" transform="translate(133,105)"/>
<path d="M0 0 C0.33 0.66 0.66 1.32 1 2 C1.66 2 2.32 2 3 2 C3.08333357 6.8333472 2.95261487 11.23692563 2 16 C1.67 16 1.34 16 1 16 C-0.12862175 10.63904667 -0.09688221 5.44693314 0 0 Z " fill="#DADDDC" transform="translate(23,76)"/>
<path d="M0 0 C0.99 0 1.98 0 3 0 C4.32 2.31 5.64 4.62 7 7 C6.01 7.99 5.02 8.98 4 10 C3.32845067 8.71086513 2.66291141 7.41859796 2 6.125 C1.62875 5.40570313 1.2575 4.68640625 0.875 3.9453125 C0 2 0 2 0 0 Z " fill="#94989D" transform="translate(53,67)"/>
<path d="M0 0 C0.99 0.33 1.98 0.66 3 1 C3 4.3 3 7.6 3 11 C2.01 10.67 1.02 10.34 0 10 C0 6.7 0 3.4 0 0 Z " fill="#86868B" transform="translate(131,182)"/>
<path d="M0 0 C0.99 0.33 1.98 0.66 3 1 C-0.18762365 3.12508244 -2.26512223 3.5020163 -6 4 C-6 4.33 -6 4.66 -6 5 C-4.35 5.33 -2.7 5.66 -1 6 C-1 6.33 -1 6.66 -1 7 C-3.97 7 -6.94 7 -10 7 C-9.67 6.34 -9.34 5.68 -9 5 C-9.99 4.34 -10.98 3.68 -12 3 C-10.82630859 2.80083984 -10.82630859 2.80083984 -9.62890625 2.59765625 C-8.61699219 2.42105469 -7.60507813 2.24445313 -6.5625 2.0625 C-5.55316406 1.88847656 -4.54382813 1.71445313 -3.50390625 1.53515625 C-1.0712562 1.25248903 -1.0712562 1.25248903 0 0 Z " fill="#C3C5C6" transform="translate(141,156)"/>
<path d="M0 0 C0.33 0.99 0.66 1.98 1 3 C-0.1446875 3.8353125 -0.1446875 3.8353125 -1.3125 4.6875 C-3.96795507 6.97242645 -5.2579107 9.0135612 -7 12 C-7.66 12 -8.32 12 -9 12 C-8.52379711 7.62346871 -7.33100111 5.93461995 -3.9375 3.1875 C-3.20402344 2.58292969 -2.47054687 1.97835937 -1.71484375 1.35546875 C-1.14894531 0.90816406 -0.58304688 0.46085938 0 0 Z " fill="#3E4142" transform="translate(214,144)"/>
<path d="M0 0 C-1.32 0.33 -2.64 0.66 -4 1 C-4 1.99 -4 2.98 -4 4 C-5.32 4 -6.64 4 -8 4 C-8.33 6.64 -8.66 9.28 -9 12 C-9.33 12 -9.66 12 -10 12 C-10 8.37 -10 4.74 -10 1 C-6.52674819 -0.1577506 -3.63932552 -0.06866652 0 0 Z " fill="#9E9E9E" transform="translate(240,126)"/>
<path d="M0 0 C-0.49730652 4.97306516 -1.55302334 8.63799813 -4 13 C-4.66 13 -5.32 13 -6 13 C-6 11.68 -6 10.36 -6 9 C-5.34 9 -4.68 9 -4 9 C-4.0928125 7.6078125 -4.0928125 7.6078125 -4.1875 6.1875 C-4 3 -4 3 -2.5625 1.125 C-1 0 -1 0 0 0 Z " fill="#949CA0" transform="translate(172,51)"/>
<path d="M0 0 C-1.24976756 3.65316671 -1.67098753 4.78065836 -5 7 C-5 6.34 -5 5.68 -5 5 C-5.99 5.33 -6.98 5.66 -8 6 C-8 4.68 -8 3.36 -8 2 C-2.25 0 -2.25 0 0 0 Z " fill="#1F2427" transform="translate(98,88)"/>
<path d="M0 0 C3.78699616 3.36621881 6.8272631 7.41641804 9 12 C8.67 12.66 8.34 13.32 8 14 C0 4.7027027 0 4.7027027 0 0 Z " fill="#5A5C63" transform="translate(62,63)"/>
<path d="M0 0 C0.99 0 1.98 0 3 0 C2.25 6.75 2.25 6.75 0 9 C0 8.34 0 7.68 0 7 C-0.66 7 -1.32 7 -2 7 C-1.34 4.69 -0.68 2.38 0 0 Z " fill="#989EA1" transform="translate(180,53)"/>
<path d="M0 0 C0.66 0.33 1.32 0.66 2 1 C2 1.66 2 2.32 2 3 C0.7934375 3.4640625 0.7934375 3.4640625 -0.4375 3.9375 C-2.89080405 4.76335345 -2.89080405 4.76335345 -4 6 C-6.67058851 6.14115161 -9.32432238 6.04247107 -12 6 C-9.48617788 4.32411859 -7.17052712 3.05969689 -4.4375 1.8125 C-3.65246094 1.44769531 -2.86742187 1.08289063 -2.05859375 0.70703125 C-1.37925781 0.47371094 -0.69992188 0.24039063 0 0 Z " fill="#10354A" transform="translate(148,142)"/>
<path d="M0 0 C1.60517097 0.08733576 3.20921662 0.19552224 4.8125 0.3125 C6.15248047 0.39951172 6.15248047 0.39951172 7.51953125 0.48828125 C10.30604 1.06313581 11.24135754 1.8206856 13 4 C11.58344207 4.0272415 10.16672955 4.04650467 8.75 4.0625 C7.56664062 4.07990234 7.56664062 4.07990234 6.359375 4.09765625 C4.09308998 4.00385306 2.1711105 3.63241063 0 3 C0 2.01 0 1.02 0 0 Z " fill="#609EC0" transform="translate(123,144)"/>
<path d="M0 0 C0.93423645 3.01031744 1.04449911 3.86650268 0 7 C0.66 7.33 1.32 7.66 2 8 C1.01 8.33 0.02 8.66 -1 9 C-0.67 10.98 -0.34 12.96 0 15 C-2 13 -2 13 -2.01171875 10.72265625 C-1.90472656 9.84480469 -1.79773438 8.96695313 -1.6875 8.0625 C-1.58824219 7.18722656 -1.48898438 6.31195313 -1.38671875 5.41015625 C-1 3 -1 3 0 0 Z M2 3 C3 7 3 7 3 7 Z " fill="#576262" transform="translate(212,79)"/>
<path d="M0 0 C0.99 0 1.98 0 3 0 C2.67 1.98 2.34 3.96 2 6 C0.68 6.33 -0.64 6.66 -2 7 C-1.125 1.125 -1.125 1.125 0 0 Z " fill="#5E6266" transform="translate(194,69)"/>
<path d="M0 0 C0 1.32 0 2.64 0 4 C-2.91482778 4.80967438 -4.46113217 5.21845993 -7.3125 4.0625 C-7.869375 3.711875 -8.42625 3.36125 -9 3 C-5.55930376 0.70620251 -4.27709699 0 0 0 Z " fill="#DDDFE1" transform="translate(162,148)"/>
<path d="M0 0 C3.93673644 1.31224548 6.22719294 2.91910327 9 6 C8.34 6 7.68 6 7 6 C7 6.99 7 7.98 7 9 C6.34 8.67 5.68 8.34 5 8 C5 7.34 5 6.68 5 6 C4.175 5.34 3.35 4.68 2.5 4 C1.675 3.34 0.85 2.68 0 2 C0 1.34 0 0.68 0 0 Z " fill="#CDCCCC" transform="translate(200,111)"/>
<path d="M0 0 C-0.33 1.65 -0.66 3.3 -1 5 C-1.66 5 -2.32 5 -3 5 C-3.33 5.99 -3.66 6.98 -4 8 C-4.33 5.69 -4.66 3.38 -5 1 C-3 0 -3 0 0 0 Z " fill="#070E0B" transform="translate(214,70)"/>
<path d="M0 0 C0.66 0 1.32 0 2 0 C1.67 2.64 1.34 5.28 1 8 C0.67 7.34 0.34 6.68 0 6 C-1.32 6.33 -2.64 6.66 -4 7 C-2.92598892 4.08482708 -2.22189824 2.22189824 0 0 Z " fill="#565C6B" transform="translate(208,66)"/>
<path d="M0 0 C1.98 0.495 1.98 0.495 4 1 C3.34 1 2.68 1 2 1 C2.16757813 1.55429687 2.33515625 2.10859375 2.5078125 2.6796875 C2.71148437 3.40414062 2.91515625 4.12859375 3.125 4.875 C3.33382812 5.59429687 3.54265625 6.31359375 3.7578125 7.0546875 C3.83773437 7.69664063 3.91765625 8.33859375 4 9 C3.34 9.66 2.68 10.32 2 11 C-0.26881841 7.91440696 -1.05451946 6.57790624 -0.6875 2.6875 C-0.460625 1.800625 -0.23375 0.91375 0 0 Z " fill="#383B41" transform="translate(68,59)"/>
<path d="M0 0 C2 1 4 2 6 3 C5.625 4.9375 5.625 4.9375 5 7 C4.01 7.495 4.01 7.495 3 8 C2.34 6.68 1.68 5.36 1 4 C0.34 4 -0.32 4 -1 4 C-0.67 2.68 -0.34 1.36 0 0 Z " fill="#939595" transform="translate(63,134)"/>
<path d="M0 0 C2 1.8125 2 1.8125 4 4 C4 4.99 4 5.98 4 7 C2.35 7 0.7 7 -1 7 C-1.33 6.01 -1.66 5.02 -2 4 C-1.34 4 -0.68 4 0 4 C0 2.68 0 1.36 0 0 Z " fill="#ABAFB5" transform="translate(76,66)"/>
<path d="M0 0 C0.66 0 1.32 0 2 0 C2.125 2.875 2.125 2.875 2 6 C0 8 0 8 -3 9 C-2.01 6.03 -1.02 3.06 0 0 Z " fill="#696C6F" transform="translate(150,38)"/>
<path d="M0 0 C0.66 0 1.32 0 2 0 C2.33 0.66 2.66 1.32 3 2 C3.99 2 4.98 2 6 2 C6 3.65 6 5.3 6 7 C4.125 6.875 4.125 6.875 2 6 C0.75 2.9375 0.75 2.9375 0 0 Z " fill="#6E787C" transform="translate(167,184)"/>
<path d="M0 0 C0.99 0.33 1.98 0.66 3 1 C-1.43076923 6.78461538 -1.43076923 6.78461538 -4.3125 7.875 C-4.869375 7.91625 -5.42625 7.9575 -6 8 C-5.1875 6.0625 -5.1875 6.0625 -4 4 C-3.01 3.67 -2.02 3.34 -1 3 C-0.67 2.01 -0.34 1.02 0 0 Z " fill="#21292C" transform="translate(72,173)"/>
<path d="M0 0 C2 1.3125 2 1.3125 4 3 C4 3.99 4 4.98 4 6 C2.35 5.67 0.7 5.34 -1 5 C-1 4.34 -1 3.68 -1 3 C-1.99 2.67 -2.98 2.34 -4 2 C-2.68 1.34 -1.36 0.68 0 0 Z " fill="#E6E6E4" transform="translate(215,113)"/>
<path d="M0 0 C1.32 0.33 2.64 0.66 4 1 C4.82638376 3.89234315 5 5.88742431 5 9 C4.34 9 3.68 9 3 9 C2.67 6.69 2.34 4.38 2 2 C1.34 2 0.68 2 0 2 C0 1.34 0 0.68 0 0 Z " fill="#B6B9B6" transform="translate(48,120)"/>
<path d="M0 0 C2.875 0.375 2.875 0.375 4.875 2.375 C3.2971875 2.5915625 3.2971875 2.5915625 1.6875 2.8125 C-1.27960549 3.25026966 -4.19294366 3.75304866 -7.125 4.375 C-4.78988517 1.50101252 -3.75068199 0.45008184 0 0 Z " fill="#C5D4D9" transform="translate(120.125,94.625)"/>
<path d="M0 0 C0 3.86695678 -1.41909971 6.5088452 -3 10 C-2.01 10.33 -1.02 10.66 0 11 C-1.32 11 -2.64 11 -4 11 C-4.8125 7.75 -4.8125 7.75 -5 4 C-2.5625 1.5625 -2.5625 1.5625 0 0 Z " fill="#2F3538" transform="translate(195,66)"/>
<path d="M0 0 C1.14814997 2.29629994 1.30769809 4.07698086 1.5625 6.625 C1.64628906 7.44226563 1.73007813 8.25953125 1.81640625 9.1015625 C1.87699219 9.72804687 1.93757813 10.35453125 2 11 C1.01 11.495 1.01 11.495 0 12 C0 11.34 0 10.68 0 10 C-0.66 10 -1.32 10 -2 10 C-1.85950482 8.52031676 -1.71245174 7.04125484 -1.5625 5.5625 C-1.48128906 4.73878906 -1.40007812 3.91507813 -1.31640625 3.06640625 C-1 1 -1 1 0 0 Z " fill="#666A6B" transform="translate(82,174)"/>
<path d="M0 0 C0.66 0.66 1.32 1.32 2 2 C1.8125 4.5 1.8125 4.5 1 7 C0.01 7.66 -0.98 8.32 -2 9 C-1.125 1.125 -1.125 1.125 0 0 Z " fill="#0E121F" transform="translate(208,74)"/>
<path d="M0 0 C0.99 0 1.98 0 3 0 C2.4140625 6.15234375 2.4140625 6.15234375 2 8 C1.01 8.495 1.01 8.495 0 9 C-1.125 2.25 -1.125 2.25 0 0 Z " fill="#70797C" transform="translate(189,58)"/>
<path d="M0 0 C0.99 0.33 1.98 0.66 3 1 C3 2.65 3 4.3 3 6 C1.02 6.99 1.02 6.99 -1 8 C-0.67 5.36 -0.34 2.72 0 0 Z " fill="#090E12" transform="translate(148,54)"/>
<path d="M0 0 C0.99 0.33 1.98 0.66 3 1 C2.34 3.31 1.68 5.62 1 8 C-0.32 7.34 -1.64 6.68 -3 6 C-2.34 5.67 -1.68 5.34 -1 5 C-0.34444881 2.47266765 -0.34444881 2.47266765 0 0 Z " fill="#212627" transform="translate(84,182)"/>
<path d="M0 0 C-0.33 0.66 -0.66 1.32 -1 2 C-3.28515625 2.4140625 -3.28515625 2.4140625 -6.0625 2.625 C-6.98160156 2.69976562 -7.90070313 2.77453125 -8.84765625 2.8515625 C-9.55792969 2.90054688 -10.26820313 2.94953125 -11 3 C-10 1 -10 1 -8.3125 0.375 C-5.51555886 -0.07855802 -2.82858003 -0.06428591 0 0 Z " fill="#BEC1C2" transform="translate(153,166)"/>
<path d="M0 0 C2.25133315 1.52509665 2.93983891 2.81834728 3.9375 5.3125 C0.47824837 4.0633258 -2.20943203 2.63722205 -5.0625 0.3125 C-2.0625 -0.6875 -2.0625 -0.6875 0 0 Z " fill="#262528" transform="translate(96.0625,145.6875)"/>
<path d="M0 0 C4.75 0.875 4.75 0.875 7 2 C7 2.99 7 3.98 7 5 C4.0625 4.1875 4.0625 4.1875 1 3 C0.67 2.01 0.34 1.02 0 0 Z " fill="#2D5E8A" transform="translate(116,141)"/>
<path d="M0 0 C2.31 0 4.62 0 7 0 C7 1.65 7 3.3 7 5 C3.535 3.02 3.535 3.02 0 1 C0 0.67 0 0.34 0 0 Z " fill="#2D4047" transform="translate(122,94)"/>
<path d="M0 0 C0.99 0 1.98 0 3 0 C2.67 1.98 2.34 3.96 2 6 C1.01 6 0.02 6 -1 6 C-1.042721 4.33388095 -1.04063832 2.66617115 -1 1 C-0.67 0.67 -0.34 0.34 0 0 Z " fill="#71899B" transform="translate(205,72)"/>
<path d="M0 0 C1.0625 1.875 1.0625 1.875 2 4 C1.67 4.66 1.34 5.32 1 6 C-1.475 5.01 -1.475 5.01 -4 4 C-4 3.34 -4 2.68 -4 2 C-2.68 1.34 -1.36 0.68 0 0 Z " fill="#63666A" transform="translate(54,168)"/>
<path d="M0 0 C0.33 0.66 0.66 1.32 1 2 C1.99 2.33 2.98 2.66 4 3 C2.02 4.32 0.04 5.64 -2 7 C-2.66 6.67 -3.32 6.34 -4 6 C-2.68 4.02 -1.36 2.04 0 0 Z " fill="#1F2122" transform="translate(173,140)"/>
<path d="M0 0 C1.2065625 0.0309375 1.2065625 0.0309375 2.4375 0.0625 C0.81410195 1.77134005 -0.85569053 3.43696717 -2.5625 5.0625 C-3.2225 5.0625 -3.8825 5.0625 -4.5625 5.0625 C-3.43829114 0.08386076 -3.43829114 0.08386076 0 0 Z " fill="#123040" transform="translate(147.5625,135.9375)"/>
<path d="M0 0 C0.33 0 0.66 0 1 0 C1.36923077 5.53846154 1.36923077 5.53846154 -0.5 7.875 C-1.2425 8.431875 -1.2425 8.431875 -2 9 C-2.125 5.625 -2.125 5.625 -2 2 C-1.34 1.34 -0.68 0.68 0 0 Z " fill="#B2C0C8" transform="translate(158,51)"/>
<path d="M0 0 C1.9375 0.75 1.9375 0.75 4 2 C4.75 4.125 4.75 4.125 5 6 C3.68 6 2.36 6 1 6 C0.67 4.02 0.34 2.04 0 0 Z " fill="#A2A3A8" transform="translate(91,49)"/>
<path d="M0 0 C2 2 2 2 2.125 5.125 C2.08375 6.07375 2.0425 7.0225 2 8 C1.01 7.67 0.02 7.34 -1 7 C-0.67 4.69 -0.34 2.38 0 0 Z " fill="#C7D3DC" transform="translate(145,185)"/>
<path d="M0 0 C1.98 0.495 1.98 0.495 4 1 C4 1.99 4 2.98 4 4 C2.35 4.33 0.7 4.66 -1 5 C-0.67 3.35 -0.34 1.7 0 0 Z " fill="#8F9397" transform="translate(61,157)"/>
<path d="M0 0 C3.73639216 1.24546405 4.18756513 2.63404953 6 6 C4.35 6 2.7 6 1 6 C0.67 4.02 0.34 2.04 0 0 Z " fill="#A4A6A5" transform="translate(52,123)"/>
<path d="M0 0 C2.64 0 5.28 0 8 0 C7.13375 0.37125 7.13375 0.37125 6.25 0.75 C3.6997003 2.16683317 1.98214299 3.87627537 0 6 C0 4.02 0 2.04 0 0 Z " fill="#8F9193" transform="translate(23,127)"/>
<path d="M0 0 C0.66 0.33 1.32 0.66 2 1 C1.67 2.32 1.34 3.64 1 5 C-0.9375 4.625 -0.9375 4.625 -3 4 C-3.33 3.34 -3.66 2.68 -4 2 C-2.125 0.9375 -2.125 0.9375 0 0 Z " fill="#D2D4D3" transform="translate(47,121)"/>
<path d="M0 0 C3.465 1.98 3.465 1.98 7 4 C6.34 4.66 5.68 5.32 5 6 C4.01 6 3.02 6 2 6 C0 3 0 3 0 0 Z " fill="#21292D" transform="translate(109,115)"/>
<path d="M0 0 C2.2477975 2.05233685 3.0022242 3.00667261 4 6 C2.35 6 0.7 6 -1 6 C-1.042721 4.33388095 -1.04063832 2.66617115 -1 1 C-0.67 0.67 -0.34 0.34 0 0 Z " fill="#393E43" transform="translate(144,54)"/>
<path d="M0 0 C0.66 0 1.32 0 2 0 C4 3 4 3 4 6 C3.01 6.33 2.02 6.66 1 7 C0.67 4.69 0.34 2.38 0 0 Z " fill="#8E8E93" transform="translate(102,44)"/>
<path d="M0 0 C1.32 0 2.64 0 4 0 C4.33 1.65 4.66 3.3 5 5 C3.02 4.34 1.04 3.68 -1 3 C-0.67 2.01 -0.34 1.02 0 0 Z " fill="#DADBDD" transform="translate(125,41)"/>
<path d="M0 0 C0.99 0.33 1.98 0.66 3 1 C2 3 2 3 -0.375 4.1875 C-3 5 -3 5 -6 4 C-3.1875 1.9375 -3.1875 1.9375 0 0 Z " fill="#525353" transform="translate(212,187)"/>
<path d="M0 0 C1.32 0.66 2.64 1.32 4 2 C4 3.98 4 5.96 4 8 C3.01 7.34 2.02 6.68 1 6 C1 4.68 1 3.36 1 2 C0.34 1.67 -0.32 1.34 -1 1 C-0.67 0.67 -0.34 0.34 0 0 Z " fill="#2D2E32" transform="translate(108,178)"/>
<path d="M0 0 C0 1.65 0 3.3 0 5 C-3.75 6.125 -3.75 6.125 -6 5 C-1.125 0 -1.125 0 0 0 Z " fill="#B8BABD" transform="translate(162,143)"/>
<path d="M0 0 C0 0.66 0 1.32 0 2 C-3.3 2 -6.6 2 -10 2 C-3.75 -1.125 -3.75 -1.125 0 0 Z " fill="#90D6EC" transform="translate(139,145)"/>
<path d="M0 0 C0.66 0.33 1.32 0.66 2 1 C1.67 3.31 1.34 5.62 1 8 C0.01 6.68 -0.98 5.36 -2 4 C-1.34 2.68 -0.68 1.36 0 0 Z " fill="#BDBFC1" transform="translate(172,134)"/>
<path d="M0 0 C1.65 0 3.3 0 5 0 C2.11912454 2.40072955 -0.56404834 4.47291037 -4 6 C-4 5.01 -4 4.02 -4 3 C-3.01 2.67 -2.02 2.34 -1 2 C-0.67 1.34 -0.34 0.68 0 0 Z " fill="#152031" transform="translate(119,90)"/>
<path d="M0 0 C0.99 0 1.98 0 3 0 C3.66 1.32 4.32 2.64 5 4 C3.02 4.99 3.02 4.99 1 6 C0.67 4.02 0.34 2.04 0 0 Z " fill="#A3A8AA" transform="translate(80,54)"/>
<path d="M0 0 C2 3 2 3 1.625 5.1875 C1.41875 5.785625 1.2125 6.38375 1 7 C-0.9375 6.625 -0.9375 6.625 -3 6 C-3.33 5.34 -3.66 4.68 -4 4 C-3.01 3.67 -2.02 3.34 -1 3 C-0.67 2.01 -0.34 1.02 0 0 Z " fill="#DADCDD" transform="translate(137,47)"/>
<path d="M0 0 C0.66 0.33 1.32 0.66 2 1 C1.6875 3.875 1.6875 3.875 1 7 C0.01 7.66 -0.98 8.32 -2 9 C-1.34 6.03 -0.68 3.06 0 0 Z " fill="#08090C" transform="translate(153,38)"/>
<path d="M0 0 C1.65 0.33 3.3 0.66 5 1 C5 1.66 5 2.32 5 3 C3.02 3.66 1.04 4.32 -1 5 C-0.67 3.35 -0.34 1.7 0 0 Z " fill="#E9ECEB" transform="translate(124,18)"/>
<path d="M0 0 C1.66666667 1.66666667 3.33333333 3.33333333 5 5 C2 6 2 6 -0.1875 5.0625 C-0.785625 4.711875 -1.38375 4.36125 -2 4 C-2 3.01 -2 2.02 -2 1 C-1.34 0.67 -0.68 0.34 0 0 Z " fill="#555D69" transform="translate(61,176)"/>
<path d="M0 0 C1.98 0.495 1.98 0.495 4 1 C4 2.98 4 4.96 4 7 C3.67 5.68 3.34 4.36 3 3 C1.68 3.33 0.36 3.66 -1 4 C-0.67 2.68 -0.34 1.36 0 0 Z " fill="#5C5F60" transform="translate(84,170)"/>
<path d="M0 0 C0.33 0.99 0.66 1.98 1 3 C-0.98 3.99 -0.98 3.99 -3 5 C-3 4.34 -3 3.68 -3 3 C-3.66 2.67 -4.32 2.34 -5 2 C-3.35 1.34 -1.7 0.68 0 0 Z M-5 5 C-4.01 5.495 -4.01 5.495 -3 6 C-3.99 6.495 -3.99 6.495 -5 7 C-5 6.34 -5 5.68 -5 5 Z " fill="#ADB3B3" transform="translate(184,147)"/>
<path d="M0 0 C0.99 0 1.98 0 3 0 C2.67 2.31 2.34 4.62 2 7 C0 5 0 5 -0.125 2.375 C-0.08375 1.59125 -0.0425 0.8075 0 0 Z " fill="#253148" transform="translate(155,105)"/>
</svg>
